<svg width="128" height="34" viewBox="0 0 128 34" fill="none" xmlns="http://www.w3.org/2000/svg">
<path d="M115.732 25.5849L115.551 25.6197L115.371 25.6689L115.194 25.7324L115.03 25.8001L114.865 25.8861L114.711 25.9773L114.562 26.0777L114.429 26.1925L114.301 26.3113L114.189 26.4394L114.093 26.5767L114.012 26.7191L113.946 26.8697L113.901 27.0214L113.872 27.1812L113.869 27.3462L113.887 27.5153L113.926 27.6843L113.99 27.8626L114.033 27.9508L114.08 28.0358L114.133 28.1198L114.192 28.2038L114.254 28.2827L114.319 28.3575L114.386 28.4323L114.46 28.5061L114.529 28.5809L114.602 28.6557L114.675 28.7254L114.749 28.7991L114.822 28.8688L114.896 28.9436L114.97 29.0184L115.038 29.0922L115.102 29.1721L115.164 29.251L115.228 29.3299L115.281 29.4149L115.345 29.5318L115.392 29.6486L115.42 29.7654L115.437 29.8781L115.438 29.9918L115.425 30.0994L115.4 30.2029L115.36 30.3074L115.31 30.4068L115.249 30.4969L115.178 30.582L115.091 30.6629L115.004 30.7347L114.901 30.8013L114.793 30.8597L114.679 30.9078L114.556 30.9468L114.431 30.9765L114.297 30.9919L114.162 31.0031L114.027 30.9949L113.898 30.9826L113.778 30.955L113.658 30.9232L113.549 30.8822L113.445 30.832L113.346 30.7818L113.246 30.7265L113.157 30.666L113.068 30.6056L112.984 30.5451L112.901 30.4847L112.822 30.4252L112.75 30.3689L112.671 30.3187L112.603 30.2726L112.53 30.2357L112.462 30.2029L112.394 30.1804L112.326 30.167L112.186 30.1732L112.079 30.2357L112.007 30.331L111.952 30.4252L111.912 30.5154L111.887 30.5995L111.877 30.6804L111.878 30.7603L111.895 30.8351L111.922 30.9099L111.96 30.9796L112.007 31.0451L112.065 31.1056L112.128 31.166L112.201 31.2265L112.279 31.2818L112.364 31.333L112.452 31.3843L112.546 31.4304L112.64 31.4754L112.738 31.5216L112.838 31.5636L112.989 31.623L113.145 31.6722L113.3 31.7183L113.457 31.7583L113.619 31.7941L113.773 31.8208L113.935 31.8423L114.096 31.8556L114.251 31.8576L114.412 31.8566L114.567 31.8454L114.727 31.8249L114.883 31.7993L115.033 31.7593L115.188 31.7163L115.337 31.663L115.481 31.5954L115.626 31.5226L115.764 31.4417L115.902 31.3454L116.047 31.2316L116.174 31.1117L116.292 30.9888L116.389 30.8556L116.474 30.7234L116.55 30.5861L116.605 30.4437L116.65 30.3023L116.68 30.1568L116.698 30.0102L116.701 29.8596L116.689 29.7142L116.666 29.5635L116.628 29.418L116.579 29.2684L116.515 29.1229L116.441 28.9785L116.351 28.8381L116.251 28.6977L116.135 28.5624L116.077 28.5071L116.02 28.4466L115.956 28.3862L115.893 28.3258L115.824 28.2653L115.757 28.1997L115.689 28.1352L115.626 28.0696L115.557 27.9999L115.494 27.9354L115.436 27.8647L115.378 27.7909L115.331 27.7202L115.282 27.6454L115.245 27.5665L115.214 27.4907L115.191 27.4066L115.175 27.3267L115.168 27.2427L115.172 27.1577L115.188 27.0778L115.212 27.002L115.248 26.9261L115.288 26.8605L115.339 26.798L115.39 26.7417L115.452 26.6894L115.518 26.6454L115.589 26.6023L115.667 26.5644L115.744 26.5347L115.828 26.5101L115.91 26.4906L115.998 26.4753L116.08 26.466L116.168 26.4599L116.257 26.464L116.34 26.4722L116.422 26.4855L116.506 26.5029L116.641 26.5491L116.767 26.6085L116.892 26.6822L117.007 26.7611L117.117 26.8492L117.227 26.9322L117.337 27.0204L117.384 27.0583L117.436 27.0808L117.483 27.0993L117.535 27.1126L117.582 27.1167H117.634L117.68 27.1064L117.726 27.0921L117.772 27.0767L117.814 27.0531L117.855 27.0245L117.897 26.9907L117.932 26.9579L117.968 26.92L117.998 26.8821L118.029 26.839L118.053 26.7919L118.079 26.7488L118.114 26.6403L118.112 26.5368L118.091 26.4343L118.038 26.34L117.963 26.2468L117.869 26.1587L117.754 26.0757L117.623 26.0019L117.482 25.9281L117.337 25.8636L117.181 25.799L117.02 25.7498L116.853 25.6996L116.691 25.6586L116.535 25.6228L116.39 25.5961L116.25 25.5746L116.12 25.5623L116.006 25.5582L115.912 25.5644L115.732 25.5849ZM108.237 28.6229L108.349 28.4385L108.475 28.2448L108.617 28.0542L108.771 27.8647L108.945 27.6792L109.124 27.503L109.318 27.3277L109.524 27.1649L109.739 27.0163L109.96 26.878L110.186 26.7529L110.423 26.6464L110.66 26.5552L110.897 26.4907L111.141 26.4415L111.384 26.42L111.628 26.4271L111.872 26.462L112.111 26.5204L112.236 26.5654L112.34 26.6208L112.435 26.6761L112.513 26.7366L112.586 26.8021L112.649 26.8667L112.707 26.9363L112.77 27.0112L112.833 27.0859L112.898 27.1649L112.97 27.2396L113.054 27.3185L113.144 27.3882L113.232 27.4015L113.366 27.3667L113.448 27.3288L113.525 27.2622L113.596 27.172L113.663 27.0767L113.714 26.9774L113.747 26.8779L113.768 26.798L113.767 26.7324L113.755 26.6618L113.734 26.5962L113.702 26.5358L113.665 26.4702L113.622 26.4097L113.57 26.3482L113.513 26.2929L113.449 26.2365L113.386 26.1863L113.313 26.1351L113.245 26.0839L113.172 26.0377L113.094 25.9968L113.021 25.9548L112.947 25.9138L112.874 25.881L112.806 25.8492L112.744 25.8216L112.681 25.7939L112.374 25.6894L112.062 25.6177L111.746 25.5736L111.429 25.5582L111.109 25.5767L110.788 25.6177L110.472 25.6822L110.163 25.7703L109.853 25.882L109.554 26.0121L109.261 26.1607L108.979 26.3247L108.711 26.506L108.455 26.7017L108.213 26.9067L107.989 27.1259L107.779 27.3534L107.591 27.586L107.423 27.8278L107.281 28.0737L107.195 28.2397L107.12 28.4098L107.045 28.585L106.98 28.7694L106.92 28.9528L106.87 29.1424L106.832 29.3309L106.804 29.5194L106.786 29.7069L106.782 29.8955L106.796 30.084L106.818 30.2674L106.862 30.4498L106.916 30.623L106.997 30.7921L107.093 30.955L107.203 31.1097L107.34 31.2583L107.497 31.3935L107.681 31.5175L107.816 31.5964L107.967 31.6701L108.139 31.7337L108.322 31.7982L108.514 31.8566L108.721 31.9017L108.93 31.9417L109.148 31.9724L109.36 31.9929L109.578 32.0001L109.786 31.9929L109.992 31.9765L110.189 31.9417L110.375 31.8925L110.544 31.8249L110.704 31.7388L110.838 31.6333L110.955 31.5103L111.046 31.3628L111.111 31.1927L111.131 31.0943L111.13 31.038L111.088 31.0052L111.01 30.9878L110.922 30.9745L110.833 30.9703L110.745 30.9714L110.653 30.9816L110.56 30.9919L110.466 31.0072L110.374 31.0267L110.28 31.0472L110.188 31.0667L110.094 31.0861L109.996 31.1066L109.903 31.122L109.81 31.1363L109.717 31.1476L109.623 31.1527L109.531 31.1537L109.437 31.1507L109.235 31.1199L109.048 31.08L108.876 31.0205L108.719 30.9508L108.578 30.873L108.453 30.7849L108.338 30.6824L108.243 30.5707L108.158 30.4539L108.089 30.3279L108.035 30.1916L107.992 30.0564L107.964 29.9109L107.952 29.7602L107.955 29.6055L107.968 29.4498L107.992 29.2941L108.032 29.1342L108.081 28.9733L108.147 28.8125L108.237 28.6229ZM102.743 29.4201L102.692 29.4816L102.63 29.5153L102.568 29.5215L102.5 29.5031L102.437 29.4703L102.385 29.419L102.343 29.3586L100.43 25.8328L100.397 25.7816L100.366 25.7396L100.329 25.7027L100.288 25.6791L100.246 25.6607L100.204 25.6474L100.162 25.6432H100.121L100.08 25.6535L100.034 25.6638L99.9919 25.6822L99.9513 25.7068L99.9095 25.7304L99.8745 25.7641L99.8384 25.797L99.8023 25.8349L99.7718 25.8738L99.7413 25.9158L96.6938 30.9037L96.5979 31.0738L96.5076 31.2634L96.4522 31.4417L96.4489 31.5267L96.4601 31.5831L96.4963 31.6159L96.5696 31.6435L96.678 31.6609L96.7401 31.665L96.8033 31.6732L96.8755 31.6774L96.9478 31.6763L97.0211 31.6804L97.0979 31.6753L97.1758 31.6691L97.2537 31.6589L97.3259 31.6394L97.3981 31.6199L97.4647 31.5954L97.5268 31.5667L97.5787 31.5288L97.6295 31.4806L97.6656 31.4335L99.8147 27.9374L99.8711 27.8811L99.949 27.8657L100.027 27.8842L100.084 27.9395L102.029 31.4693L102.055 31.5114L102.087 31.5544L102.118 31.5913L102.15 31.6282L102.187 31.6558L102.229 31.6794L102.265 31.7019L102.307 31.7163L102.349 31.7296L102.39 31.7337H102.431L102.473 31.7286L102.513 31.7183L102.555 31.704L102.597 31.6794L102.632 31.6517L102.668 31.6179L102.704 31.5749L102.735 31.5277L106.147 25.9199L106.187 25.8492L106.202 25.7928L106.186 25.7508L106.133 25.7037L106.044 25.6535L105.988 25.6258L105.93 25.6023L105.867 25.5849L105.799 25.5715L105.732 25.5623L105.665 25.5582L105.597 25.5592L105.53 25.5654L105.457 25.5746L105.39 25.5849L105.324 25.6043L105.262 25.6238L105.194 25.6484L105.138 25.6771L105.076 25.7109L105.025 25.7447L104.974 25.7877L104.932 25.8256L104.892 25.8728L104.855 25.9199L102.743 29.4201ZM103.56 31.2347L103.524 31.3003L103.504 31.3669L103.5 31.4284L103.51 31.4796L103.543 31.5308L103.585 31.5728L103.648 31.6046L103.726 31.6271L103.782 31.6363L103.84 31.6456L103.896 31.6538L103.959 31.6579L104.021 31.6568L104.088 31.661L104.15 31.6558L104.218 31.6507L104.28 31.6404L104.342 31.6302L104.404 31.6107L104.46 31.5913L104.517 31.5677L104.569 31.539L104.615 31.5052L104.661 31.4714L104.696 31.4284L104.732 31.3812L108.023 26.006L108.063 25.9107L108.057 25.8175L108.019 25.7232L107.952 25.6587L107.888 25.6258L107.826 25.5982L107.759 25.5808L107.691 25.5675L107.619 25.5582L107.551 25.5592L107.479 25.5603L107.405 25.5705L107.333 25.5849L107.266 25.6043L107.194 25.6289L107.126 25.6535L107.065 25.6873L107.003 25.7201L106.947 25.7632L106.891 25.8021L106.84 25.8492L106.793 25.8974L106.753 25.9445L106.717 25.9968L103.56 31.2347ZM79.2474 31.0083L79.2677 30.9324L79.2248 30.8484L79.1458 30.788L79.0577 30.7797L78.1029 31.0205L77.9426 31.0502L77.7868 31.0666L77.6322 31.0687L77.4821 31.0554L77.3308 31.0287L77.1853 30.9888L77.0441 30.9386L76.9087 30.8791L76.7835 30.8044L76.6626 30.7214L76.5532 30.6332L76.4584 30.5308L76.3692 30.4232L76.2947 30.3064L76.236 30.1855L76.1875 30.0543L76.1604 29.918L76.1435 29.7818L76.1457 29.6363L76.1705 29.4897L76.2134 29.3012L76.2732 29.1168L76.3443 28.9323L76.429 28.753L76.5205 28.5727L76.622 28.4026L76.7338 28.2325L76.8557 28.0665L76.9877 27.9046L77.1266 27.753L77.2744 27.6003L77.4279 27.462L77.5859 27.3288L77.7552 27.1997L77.9302 27.0849L78.1108 26.9753L78.2959 26.8739L78.4866 26.7827L78.6774 26.7048L78.8727 26.6372L79.0024 26.5982L79.1311 26.5685L79.2654 26.5388L79.3941 26.5183L79.5239 26.5029L79.6537 26.4917L79.7824 26.4907L79.9076 26.4988L80.0319 26.5111L80.1515 26.5337L80.2711 26.5603L80.3851 26.5972L80.5002 26.6474L80.6041 26.7027L80.7034 26.7673L80.7982 26.8462L80.8874 26.9302L80.9721 27.0276L81.0454 27.1403L81.1143 27.2571L81.1876 27.336L81.3028 27.3728L81.4269 27.3667L81.5251 27.3042L81.6775 27.128L81.7892 26.962L81.8592 26.8021L81.8886 26.6556L81.8874 26.5142L81.849 26.383L81.7847 26.2662L81.6956 26.1546L81.586 26.0521L81.4495 25.9588L81.2982 25.8758L81.1368 25.8031L80.9596 25.7396L80.7768 25.6843L80.5906 25.6391L80.3987 25.6084L80.2113 25.5828L80.0251 25.5664L79.8479 25.5582L79.6819 25.5602L79.4438 25.5817L79.2056 25.6084L78.9731 25.6484L78.7519 25.7026L78.5295 25.7611L78.3128 25.8338L78.1017 25.9117L77.8952 26.0039L77.6943 26.1043L77.499 26.2099L77.3083 26.3298L77.1243 26.4547L76.9448 26.5828L76.7699 26.7222L76.6062 26.8697L76.4425 27.0214L76.2891 27.1781L76.1356 27.3451L75.9934 27.5111L75.8556 27.6864L75.7383 27.8431L75.6265 28.0091L75.5204 28.1843L75.4188 28.3596L75.3229 28.544L75.2427 28.7284L75.1626 28.918L75.0971 29.1106L75.0475 29.3042L75.0091 29.502L74.9809 29.6957L74.973 29.8883L74.9809 30.0809L75.0046 30.2745L75.0475 30.4569L75.1129 30.6445L75.1976 30.8227L75.3037 30.9949L75.4357 31.1629L75.5938 31.3218L75.6875 31.4048L75.7879 31.4744L75.8974 31.5441L76.0069 31.6035L76.122 31.6537L76.236 31.6999L76.3557 31.7408L76.4809 31.7726L76.6051 31.7992L76.7349 31.8259L76.8647 31.8433L76.9945 31.8556L77.1243 31.8638L77.2541 31.872L77.3884 31.8751L77.5182 31.874L77.648 31.873L77.7767 31.8658L77.9008 31.8556L78.0262 31.8443L78.1085 31.8392L78.1966 31.833L78.2902 31.8228L78.3884 31.8074L78.4866 31.7931L78.5792 31.7674L78.6661 31.7337L78.744 31.6906L78.8106 31.6435L78.867 31.5769L79.2474 31.0083ZM83.1674 25.591L83.0376 25.592L82.9394 25.6023L82.8672 25.6177L82.8107 25.6412L82.7644 25.6802L82.7283 25.7314L82.6888 25.8031L82.4811 26.2242L82.436 26.3236L82.4213 26.3892L82.4371 26.4271L82.4947 26.4496L82.5884 26.4579L83.4281 26.5101L83.5534 26.5275L83.611 26.5685L83.6324 26.6679L83.6189 26.8226L83.5647 26.9743L81.1482 30.75L81.0274 30.9775L80.9168 31.2132L80.8716 31.3505L80.8773 31.4304L80.9461 31.4816L81.0917 31.5175L81.1482 31.5267L81.2114 31.5349L81.2678 31.5441L81.3299 31.5431L81.3976 31.5472L81.4596 31.5462L81.5217 31.541L81.5838 31.5359L81.6459 31.5257L81.7035 31.5154L81.7644 31.496L81.822 31.4765L81.8728 31.4519L81.9247 31.4232L81.971 31.3904L82.0173 31.3515L82.0522 31.3095L82.0884 31.2572L84.7826 27.0265L84.9304 26.8411L85.0941 26.67L85.1968 26.589L85.321 26.5501L85.4293 26.5347L85.5377 26.5285L85.6415 26.5224L85.7453 26.5214L85.8481 26.5204L85.9474 26.5193L86.0456 26.5183L86.1438 26.5121L86.2375 26.507L86.3244 26.4968L86.4124 26.4763L86.4959 26.4568L86.5727 26.423L86.6494 26.38L86.7217 26.3277L86.7883 26.2652L86.8492 26.1894L86.9057 26.0992L86.9553 25.9957L87.0005 25.8728L87.0152 25.7785L86.9937 25.7037L86.9361 25.6566L86.821 25.6156L86.5817 25.5715L86.3176 25.5603L86.0682 25.5582L83.1674 25.591ZM73.3837 25.5859L73.316 25.592L73.2539 25.5972L73.2032 25.6166L73.1569 25.6402L73.105 25.6832L73.0587 25.7406L73.0034 25.8164L72.9368 25.9107L72.8612 26.0295L69.6602 31.1783L69.6207 31.2541L69.6049 31.3105L69.6161 31.3576L69.6636 31.4089L69.7471 31.4693L69.8204 31.5103L69.8983 31.538L72.5519 31.5083L72.614 31.5072L72.6761 31.4929L72.737 31.4734L72.7991 31.4499L72.8612 31.4201L72.9176 31.3822L72.9695 31.3443L73.0203 31.3013L73.0711 31.2531L73.1118 31.2009L73.1535 31.1486L73.1829 31.0974L73.2133 31.0451L73.2337 30.9877L73.2483 30.9365L73.2573 30.8228L73.2303 30.7531L73.1569 30.7111L73.0372 30.6937L71.6331 30.6435L71.5598 30.621L71.5079 30.5656L71.4751 30.4857L71.4638 30.4058L71.4728 30.3258L71.4977 30.2592L72.158 29.2028L72.2336 29.0799L72.3002 29.0041L72.3623 28.9559L72.4289 28.9364L72.5169 28.9313L74.3409 28.9108L74.4131 28.8965L74.4899 28.8576L74.5621 28.8001L74.6332 28.7284L74.6998 28.6485L74.7608 28.5624L74.8116 28.4825L74.8466 28.4067L74.8714 28.3452L74.8917 28.2561L74.8849 28.1997L74.833 28.1526L74.7394 28.1065L74.64 28.0747L74.5362 28.0573L74.4165 28.0399L74.2924 28.0317L74.158 28.0286L74.0226 28.0296L73.8826 28.0317L73.7427 28.0327L73.614 28.0348L73.4842 28.0317L73.3589 28.0184L73.2506 28.005L73.1512 27.9835L73.1049 27.9457L73.0982 27.8759L73.123 27.7622L73.1377 27.7099L73.1625 27.6536L73.1874 27.588L73.2235 27.5163L73.2641 27.4405L73.3093 27.3606L73.3544 27.2755L73.4052 27.1905L73.4616 27.1044L73.5226 27.0193L73.5779 26.9384L73.6445 26.8585L73.7054 26.7868L73.772 26.716L73.833 26.6536L73.8996 26.6013L73.9617 26.5583L74.0237 26.5245L74.0858 26.505L74.1422 26.4999L75.8003 26.4814L75.8725 26.4712L75.9346 26.4558L76.0024 26.4271L76.0577 26.3943L76.1152 26.3513L76.1661 26.3032L76.2168 26.2509L76.2574 26.1945L76.2981 26.1371L76.3331 26.0757L76.3636 26.0142L76.394 25.9568L76.4143 25.8964L76.4335 25.8441L76.4538 25.7539L76.4267 25.6986L76.3489 25.6422L76.2033 25.592L76.0317 25.5664L75.8703 25.5582L73.3837 25.5859ZM65.8982 31.1363L65.8632 31.2029L65.853 31.2685L65.8587 31.3289L65.8801 31.3853L65.9129 31.4324L65.9648 31.4745L66.0223 31.5021L66.0901 31.5246L66.1679 31.5288L68.5721 31.539L68.65 31.5339L68.7222 31.5144L68.7944 31.4806L68.861 31.4417L68.9231 31.3945L68.9784 31.3371L69.0303 31.2798L69.0755 31.2183L69.1218 31.1568L69.1568 31.0953L69.1872 31.0338L69.2267 30.9058L69.2098 30.8166L69.1364 30.7285L69.0586 30.6967L67.8971 30.6384L67.8193 30.6261L67.7617 30.5882L67.7301 30.5369L67.7131 30.4765L67.7177 30.4058L67.7323 30.3351L67.7515 30.2644L67.782 30.1978L67.8125 30.1414L70.4209 26.0624L70.457 25.9906L70.4864 25.9158L70.5011 25.8349L70.4943 25.755L70.4627 25.6945L70.3949 25.6433L70.3329 25.6207L70.2696 25.6023L70.2019 25.5849L70.1342 25.5756L70.0676 25.5675L69.9943 25.5582L69.922 25.5592L69.8498 25.5603L69.7764 25.5654L69.7098 25.5756L69.6376 25.591L69.5698 25.6105L69.5033 25.63L69.4412 25.6586L69.3791 25.6873L69.3227 25.7211L69.2719 25.7642L69.2256 25.8072L69.1793 25.8543L69.1443 25.9066L65.8982 31.1363ZM65.3406 25.59L65.274 25.5951L65.2164 25.6053L65.1656 25.6249L65.1193 25.6576L65.0674 25.7109L65.0121 25.7867L64.9456 25.8861L64.8699 26.0091L61.6949 31.1527L61.6599 31.2142L61.6396 31.2716L61.635 31.3228L61.6362 31.3699L61.6475 31.413L61.6734 31.4499L61.6994 31.4816L61.7411 31.5103L61.7829 31.5329L61.836 31.5513L61.8924 31.5595L61.9545 31.5687L62.0222 31.5728L64.8406 31.541L64.9241 31.5308L64.9963 31.5072L65.0629 31.4683L65.1239 31.4212L65.1803 31.3638L65.2311 31.3023L65.2717 31.2357L65.3124 31.165L65.3428 31.0984L65.3677 31.0369L65.3824 30.9714L65.3812 30.9048L65.3597 30.8494L65.3282 30.7972L65.2808 30.7511L65.2232 30.7234L65.1555 30.7009L65.0776 30.6967L63.7514 30.7111L63.643 30.7039L63.5753 30.6763L63.5223 30.6148L63.5064 30.5871L63.4692 30.5174L63.4839 30.4365L63.5493 30.3094L64.0561 29.4611L64.0968 29.3903L64.1521 29.3094L64.2187 29.2202L64.2954 29.1291L64.3722 29.0491L64.4591 28.9825L64.546 28.9344L64.6397 28.919L66.4636 28.8985L66.5461 28.8883L66.6284 28.8545L66.7007 28.8063L66.7718 28.7499L66.8339 28.6782L66.8892 28.6075L66.9355 28.5307L66.9761 28.46L67.0009 28.3893L67.0201 28.3186L67.0144 28.2438L66.993 28.1731L66.9445 28.1167L66.8723 28.0798L66.7842 28.0624L65.3733 28.0307L65.2954 28.0225L65.239 27.9948L65.1973 27.962L65.1656 27.9159L65.1487 27.8637L65.1431 27.8073L65.1476 27.752L65.1623 27.6895L65.1871 27.6331L65.2176 27.5809L65.7503 26.7376L65.8113 26.6433L65.8677 26.5767L65.9242 26.5337L65.9907 26.5091L66.0731 26.4947L66.1826 26.4927L68.0947 26.4722L68.1714 26.4425L68.2583 26.3759L68.3509 26.2765L68.4423 26.1669L68.519 26.0531L68.5743 25.9537L68.6048 25.8831L68.6138 25.8123L68.5981 25.7509L68.5653 25.6955L68.5134 25.6535L68.4558 25.6166L68.3825 25.589L68.3102 25.5705L68.2323 25.5623L68.159 25.5582L65.3406 25.59ZM58.7083 25.5992L58.6361 25.6043L58.5639 25.6289L58.4973 25.6627L58.4352 25.7058L58.3787 25.758L58.3279 25.8154L58.2772 25.881L58.2365 25.9476L58.2015 26.0142L58.1654 26.0798L58.1406 26.1412L58.1203 26.1987L58.0909 26.3062L58.0864 26.3769L58.1033 26.4148L58.1451 26.4373L58.223 26.4466L59.1824 26.5204L59.2907 26.5429L59.3596 26.6269L59.3697 26.6413L59.398 26.7202L59.3776 26.8103L59.2919 26.961L56.6642 31.1773L56.6089 31.2767L56.6044 31.3474L56.636 31.4171L56.6631 31.4591L56.715 31.5205L56.7782 31.5472L56.8821 31.5564L57.4622 31.5493L57.5446 31.5441L57.6124 31.5339L57.6688 31.5144L57.7207 31.4765L57.7715 31.4242L57.8223 31.3525L57.8878 31.248L60.6418 26.8339L60.7242 26.7294L60.8111 26.6433L60.9082 26.5808L61.012 26.5326L61.1204 26.504L61.2389 26.4794L61.3574 26.4681L61.477 26.4619L61.6012 26.4558L61.7253 26.4548L61.8495 26.4486L61.9692 26.4374L62.0877 26.4179L62.2017 26.3933L62.31 26.3492L62.4071 26.2919L62.5053 26.215L62.5866 26.1156L62.6622 25.9927L62.7276 25.8461L62.7468 25.7375L62.731 25.6679L62.6735 25.6351L62.5222 25.6033L62.4387 25.5767L62.3563 25.5582L58.7083 25.5992ZM32.756 31.2265L32.7255 31.2982L32.7164 31.3586L32.7334 31.4202L32.7594 31.4673L32.8068 31.5083L32.8643 31.541L32.932 31.5636L33.0043 31.5677L33.5845 31.5605L33.6725 31.5554L33.739 31.5359L33.8012 31.498L33.8621 31.4212L33.9332 31.3126L35.3091 29.1803L35.3746 29.0758L35.4366 29L35.4874 28.9528L35.5439 28.9242L35.6059 28.9139L35.6894 28.9078L37.6117 28.8862L37.7832 28.9129L37.9491 28.958L38.0789 28.9989L38.1263 29.0502L38.1275 29.1445L38.088 29.3043L38.018 29.4652L37.9322 29.6076L36.922 31.1804L36.887 31.2562L36.8712 31.332L36.8837 31.4068L36.9209 31.4673L36.983 31.5134L37.0665 31.541L37.1286 31.5452L37.1906 31.5544L37.264 31.5574L37.3363 31.5616L37.4141 31.5657L37.492 31.5595L37.5688 31.5544L37.6421 31.5493L37.7189 31.5339L37.7911 31.5144L37.8588 31.4898L37.9198 31.4612L37.9774 31.4233L38.0225 31.3802L38.0643 31.333L41.5046 25.9455L41.535 25.8789L41.5497 25.8226L41.5486 25.7662L41.5328 25.715L41.5012 25.6679L41.4594 25.631L41.4064 25.5982L41.3499 25.5757L41.2822 25.5623L41.2145 25.5582L40.7167 25.5644L40.6242 25.5654L40.5565 25.5798L40.5 25.6043L40.4436 25.6515L40.3928 25.7181L40.3262 25.8134L39.114 27.7171L39.0474 27.7981L38.9447 27.8893L38.8273 27.9743L38.7031 28.0327L38.5948 28.0573L36.5213 28.0429L36.4028 28.0204L36.3137 27.9559L36.2809 27.8667L36.2899 27.7346L36.3396 27.5747L36.4209 27.423L37.3949 25.9353L37.4401 25.8267L37.4288 25.7324L37.36 25.6627L37.2302 25.6125L37.1681 25.5941L37.106 25.5849L37.0428 25.5767L36.9762 25.5675L36.9141 25.5685L36.8509 25.5644L36.7888 25.5695L36.7267 25.5756L36.6647 25.5859L36.6026 25.6002L36.5462 25.6197L36.4841 25.6392L36.4333 25.6638L36.3757 25.6873L36.3249 25.7211L36.2786 25.7539L36.2324 25.7928L36.1918 25.8349L36.1511 25.8831L36.115 25.9353L32.756 31.2265ZM49.9733 30.9427L49.8649 31.0472L49.769 31.166L49.6922 31.289L49.6674 31.374L49.7103 31.4253L49.8344 31.4612L49.8965 31.4745L49.9744 31.4878L50.0624 31.4919L50.1617 31.5001L50.2656 31.4991L50.374 31.498L50.4823 31.496L50.5963 31.4857L50.7002 31.4755L50.804 31.4601L50.892 31.4396L50.9744 31.4161L51.041 31.3863L51.0918 31.3535L52.2092 30.3904L52.2961 30.3238L52.3785 30.2849L52.4824 30.2654L52.637 30.2592L54.2127 30.2418L54.3109 30.2449L54.4045 30.2623L54.4881 30.2941L54.5558 30.3361L54.6134 30.4017L54.6506 30.4805L54.6619 30.5184L54.663 30.5656V30.6168L54.6642 30.6742L54.6596 30.7398L54.6495 30.8002L54.6461 30.8709L54.6416 30.9375L54.6371 31.0031L54.6382 31.0738L54.6438 31.1353L54.6506 31.2009L54.6619 31.2572L54.6834 31.3085L54.7093 31.3556L54.7409 31.3925L54.7827 31.4253L54.8346 31.4478L54.9023 31.457L54.9757 31.4612L55.4723 31.4222L55.5705 31.412L55.6427 31.3966L55.689 31.3679L55.7252 31.3207L55.7443 31.2541L55.7635 31.1599L56.7072 25.7918L56.7116 25.7211L56.7003 25.6648L56.6688 25.6177L56.627 25.5859L56.575 25.5675L56.5175 25.5582L56.4554 25.5592L56.3934 25.5695L56.3313 25.589L56.2748 25.6177L56.2184 25.6566L49.9733 30.9427ZM53.6833 29.4426L53.6201 29.3688L53.6032 29.2746L53.6495 29.1987L54.6687 28.2889L54.724 28.2407L54.7861 28.1977L54.8526 28.1649L54.9147 28.1454L54.9723 28.1393L55.0186 28.1628L55.0502 28.209L55.057 28.294L55.0536 28.4067L55.0445 28.5338L55.0355 28.6659L55.0174 28.8022L54.9926 28.9385L54.9588 29.0666L54.9136 29.1793L54.8572 29.2787L54.7703 29.3647L54.6574 29.4324L54.5344 29.4611L53.7725 29.4703L53.6833 29.4426ZM38.5089 31.3024L38.4536 31.3823L38.4694 31.4765L38.5338 31.5554L38.632 31.578L39.5541 31.5677L39.6625 31.5575L39.755 31.5186L39.8792 31.4233L41.0214 30.4693L41.1241 30.3976L41.2167 30.3638L41.3623 30.3577L43.0204 30.3392L43.1863 30.3751L43.333 30.4632L43.4007 30.5605L43.4335 30.6691L43.3488 31.2716L43.3443 31.3423L43.3398 31.3987L43.3454 31.4458L43.3567 31.4837L43.3827 31.5063L43.4143 31.5298L43.4606 31.5431L43.5226 31.5473L43.6062 31.5514L43.6999 31.5503L44.1965 31.5441L44.2958 31.5431L44.3681 31.5288L44.4188 31.5001L44.455 31.452L44.4798 31.3771L44.499 31.2726L45.4697 25.9794L45.4787 25.9231L45.4776 25.8575V25.796L45.4663 25.7345L45.4448 25.6792L45.4177 25.632L45.376 25.5951L45.3241 25.5675L45.2608 25.5583L45.1785 25.5685L45.0916 25.6023L45.0137 25.6505L44.8444 25.7745L44.6807 25.8943L38.5089 31.3024ZM42.4515 29.2869L42.4865 29.249L42.5689 29.1537L42.6558 29.0594L42.7416 28.9641L42.8398 28.8688L42.9369 28.7735L43.0385 28.6782L43.1468 28.5881L43.254 28.5061L43.3624 28.4252L43.4696 28.3534L43.578 28.291L43.6908 28.2336L43.7427 28.2233L43.7845 28.2653L43.7958 28.3309L43.7924 28.4488L43.7834 28.5666L43.78 28.6793L43.7665 28.7879L43.7574 28.8914L43.7371 28.9908L43.7179 29.0851L43.6886 29.1742L43.6536 29.2551L43.6073 29.3258L43.5565 29.3924L43.5001 29.4498L43.4279 29.4969L43.3511 29.5359L43.2585 29.5646L43.1491 29.58L43.0351 29.5861L42.9007 29.5789L42.7551 29.5615L42.5949 29.5297L42.4752 29.498L42.412 29.4611L42.4007 29.4098L42.4255 29.3248L42.4515 29.2869ZM94.8393 25.5706L94.5707 25.5931L94.3065 25.6331L94.0379 25.6884L93.7749 25.7519L93.5165 25.8349L93.2591 25.9271L93.0119 26.0286L92.7648 26.1444L92.5221 26.2693L92.2918 26.4087L92.0706 26.5521L91.855 26.71L91.6552 26.8759L91.4599 27.0481L91.2816 27.2336L91.1134 27.4231L90.9599 27.6178L90.8234 27.8268L90.7014 28.0348L90.5559 28.3422L90.4351 28.6445L90.3516 28.9416L90.2985 29.2347L90.2703 29.5164L90.2748 29.7941L90.3087 30.0574L90.3741 30.3105L90.4712 30.5492L90.5886 30.7788L90.741 30.9888L90.9204 31.1794L91.1247 31.3556L91.355 31.5134L91.6101 31.6466L91.8968 31.7563L92.2038 31.8474L92.5413 31.9089L92.8991 31.9479L93.2828 31.9581L93.5469 31.9448L93.8167 31.9089L94.0853 31.8546L94.3528 31.7808L94.6215 31.6938L94.8844 31.5821L95.1474 31.4622L95.4048 31.3228L95.6508 31.1743L95.8924 31.0114L96.1238 30.8392L96.3382 30.6537L96.5482 30.4581L96.7423 30.2593L96.9218 30.0492L97.0787 29.8361L97.2265 29.6137L97.3473 29.3914L97.4534 29.164L97.5335 28.9375L97.6024 28.6782L97.6554 28.419L97.6938 28.1639L97.7062 27.9098L97.7028 27.67L97.678 27.4302L97.634 27.2048L97.5697 26.9846L97.4884 26.7786L97.3823 26.5829L97.2559 26.4005L97.1035 26.2325L96.9353 26.0798L96.7412 25.9456L96.5279 25.8298L96.2874 25.7335L96.0278 25.6566L95.7423 25.5982L95.4352 25.5685L95.1034 25.5583L94.8393 25.5706ZM94.3246 26.5173L94.5255 26.4825L94.7219 26.461L94.9194 26.4548L95.1113 26.4661L95.2976 26.4927L95.4804 26.5378L95.6463 26.5921L95.8077 26.6659L95.959 26.753L96.0955 26.8503L96.2208 26.962L96.3314 27.088L96.4274 27.2233L96.5019 27.3729L96.5606 27.5327L96.5989 27.7059L96.617 27.8893L96.6148 28.0819L96.5865 28.2848L96.547 28.4447L96.4974 28.6055L96.4319 28.7705L96.3619 28.9314L96.2761 29.0881L96.1791 29.249L96.0786 29.4007L95.9658 29.5523L95.8495 29.6998L95.7208 29.8423L95.5888 29.9806L95.4499 30.1087L95.3021 30.2367L95.1531 30.3566L94.9996 30.4662L94.8393 30.5718L94.6802 30.6671L94.5154 30.7542L94.3506 30.831L94.1858 30.8987L93.9894 30.9663L93.784 31.0206L93.5763 31.0554L93.3697 31.0821L93.1621 31.0933L92.9555 31.0913L92.7534 31.0698L92.5604 31.039L92.3731 30.9888L92.197 30.9253L92.0299 30.8474L91.8832 30.7552L91.7466 30.6476L91.6315 30.5267L91.5367 30.3873L91.4622 30.2326L91.4125 30.0636L91.39 29.8761L91.3922 29.6732L91.425 29.457L91.4746 29.2634L91.5288 29.0697L91.5988 28.8812L91.6801 28.6967L91.7704 28.5164L91.8663 28.3411L91.978 28.1711L92.0954 28.0051L92.223 27.8442L92.355 27.6915L92.4984 27.544L92.6519 27.4016L92.811 27.2684L92.9747 27.1444L93.1496 27.0245L93.3348 26.919L93.5198 26.8175L93.7151 26.7264L93.916 26.6444L94.1226 26.5716L94.3246 26.5173ZM84.2385 31.0462L84.1628 31.1835L84.0918 31.3443L84.0692 31.495L84.0805 31.58L84.1268 31.6261L84.2419 31.663L84.2995 31.6763L84.3559 31.6846L84.4135 31.6938L84.4755 31.6979L84.5376 31.702L84.5997 31.6968L84.6617 31.6958L84.7238 31.6856L84.7859 31.6753L84.8423 31.661L84.9044 31.6456L84.9563 31.622L85.0128 31.5974L85.0647 31.5688L85.111 31.536L85.1516 31.4981L85.1923 31.455L85.2227 31.4069L86.3796 29.5974L86.4203 29.541L86.462 29.498L86.5027 29.4642L86.549 29.4406L86.5952 29.4252L86.6415 29.4201L86.6833 29.4252L86.7307 29.4426L86.7668 29.4662L86.804 29.499L86.8356 29.541L86.8616 29.5922L86.883 29.6527L87.3628 31.3884L87.4215 31.496L87.5208 31.5882L87.6359 31.6487L87.7499 31.6846L87.8752 31.7071L88.0095 31.7153L88.145 31.7091L88.2691 31.6938L88.3876 31.6589L88.47 31.6159L88.531 31.5401L88.5705 31.4458V31.3659L88.1653 29.7992L88.1427 29.6957L88.137 29.625L88.1517 29.5687L88.1878 29.5308L88.2488 29.4969L88.3425 29.4672L89.1168 29.2377L89.3019 29.1742L89.4825 29.0881L89.6574 28.9877L89.8267 28.8627L89.9858 28.7295L90.1337 28.582L90.2714 28.4211L90.399 28.2541L90.5096 28.0747L90.6067 27.8903L90.6811 27.7059L90.741 27.5123L90.7805 27.3237L90.7985 27.1352L90.7906 26.9477L90.7567 26.7643L90.7026 26.586L90.6179 26.4179L90.5017 26.254L90.3595 26.1054L90.3019 26.0583L90.2387 26.0122L90.171 25.9661L90.0976 25.924L90.0242 25.8831L89.952 25.8462L89.873 25.8144L89.7906 25.7826L89.7127 25.755L89.6292 25.7325L89.5457 25.714L89.4622 25.6966L89.3798 25.6884L89.3019 25.6792L89.2183 25.6802L87.8921 25.6956L87.7736 25.6966L87.6855 25.716L87.6235 25.7447L87.567 25.8022L87.5061 25.8923L84.2385 31.0462ZM88.9825 26.6096L89.0705 26.6136L89.1484 26.6311L89.2217 26.6546L89.2849 26.6864L89.3369 26.7284L89.3888 26.7745L89.426 26.8257L89.4633 26.8821L89.4893 26.9425L89.5062 27.0081L89.5231 27.0788L89.5287 27.1495L89.5344 27.2202L89.531 27.2909L89.5208 27.3616L89.5073 27.4313L89.4915 27.4979L89.4667 27.5594L89.4418 27.6209L89.4113 27.6731L89.3459 27.7725L89.2793 27.8627L89.2026 27.9528L89.1269 28.0338L89.0445 28.1096L88.9576 28.1864L88.8696 28.253L88.777 28.3104L88.6799 28.3678L88.5817 28.416L88.4791 28.459L88.3707 28.4979L88.2623 28.5317L88.154 28.5563L88.04 28.5768L87.9215 28.5881L87.8018 28.5932L87.6833 28.5953L87.558 28.5871L87.4339 28.5738L87.356 28.5471L87.2984 28.501L87.2612 28.4354L87.2397 28.3647L87.2374 28.2848L87.2533 28.209L87.2882 28.1383L88.233 26.7356L88.2939 26.6598L88.3662 26.6259L88.4847 26.6147L88.9825 26.6096ZM44.9798 31.1855L44.9539 31.2418L44.9347 31.3033L44.9302 31.3648L44.9415 31.4212L44.9674 31.4724L45.0047 31.5144L45.0521 31.5461L45.1142 31.5697L45.1921 31.5779L45.6898 31.5728L45.7937 31.5666L45.8704 31.5564L45.9325 31.5318L45.9889 31.4888L46.0397 31.4273L46.1006 31.3371L47.2734 29.5133L47.314 29.4569L47.3547 29.4139L47.401 29.3852L47.4472 29.3657L47.4946 29.3555L47.5409 29.3596L47.5872 29.3688L47.6346 29.3913L47.6707 29.42L47.7124 29.4518L47.7441 29.4938L47.7768 29.5409L47.8028 29.5922L47.8197 29.6485L48.2666 31.332L48.2937 31.4212L48.3208 31.4816L48.3581 31.5246L48.4145 31.5472L48.4879 31.5554L48.5917 31.5595L49.0884 31.5533L49.1504 31.5431L49.2024 31.5246L49.2543 31.4949L49.2949 31.457L49.3299 31.4099L49.3604 31.3576L49.3863 31.3054L49.401 31.2449L49.41 31.1834L49.4146 31.1271L49.4134 31.0656L49.4021 31.0144L49.3863 30.9621L49.3649 30.9201L49.3175 30.8555L49.2802 30.7848L49.2385 30.7141L49.2012 30.6393L49.1685 30.5604L49.1369 30.4805L49.1041 30.3965L49.0771 30.3166L49.05 30.2326L49.0285 30.1475L49.0059 30.0635L48.9901 29.9785L48.9732 29.8944L48.9619 29.8094L48.9495 29.7253L48.9439 29.6454L48.9382 29.5655L48.9371 29.4907L48.9461 29.3954L48.9811 29.3391L49.0635 29.2868L49.2588 29.2049L49.471 29.1454L49.6775 29.0911L49.8841 29.0276L50.0026 28.9794L50.1155 28.9313L50.2295 28.8739L50.3367 28.8165L50.445 28.754L50.5478 28.6915L50.6449 28.6249L50.7374 28.5481L50.8299 28.4763L50.9169 28.3954L51.0038 28.3145L51.0805 28.2294L51.1573 28.1392L51.2329 28.0491L51.2995 27.9538L51.3661 27.8595L51.427 27.7601L51.4869 27.6556L51.5377 27.5511L51.5884 27.4425L51.6336 27.3298L51.6629 27.2161L51.6866 27.0931L51.7013 26.9763L51.7047 26.8482L51.6979 26.7263L51.6798 26.6043L51.6528 26.4824L51.62 26.3646L51.5726 26.2478L51.5185 26.1402L51.4552 26.0377L51.3819 25.9445L51.2927 25.8564L51.2024 25.7816L51.0986 25.717L50.9835 25.6617L50.8593 25.6207L50.7283 25.5941L50.5839 25.5858L48.8423 25.5582L48.7238 25.5787L48.5895 25.6371L48.4664 25.718L48.384 25.799L44.9798 31.1855ZM49.0093 26.7795L49.059 26.7088L49.1211 26.6463L49.1933 26.5941L49.2701 26.5511L49.3525 26.5121L49.4405 26.4834L49.5331 26.4588L49.6257 26.4486L49.7193 26.4424L49.8175 26.4414L49.9112 26.4547L50.0048 26.4722L50.0929 26.4998L50.1764 26.5316L50.2555 26.5777L50.3277 26.6289L50.3909 26.6843L50.4439 26.755L50.4868 26.8287L50.5184 26.9138L50.541 27.0408L50.5376 27.1628L50.5139 27.2847L50.4631 27.4077L50.3976 27.5316L50.3108 27.6454L50.2137 27.7591L50.0963 27.8636L49.9733 27.964L49.84 28.0593L49.6956 28.1454L49.5466 28.2181L49.392 28.2858L49.2374 28.339L49.0827 28.3831L48.9326 28.4128L48.7825 28.4292L48.6425 28.4261L48.5071 28.4128L48.3829 28.3821L48.305 28.34L48.2464 28.2837L48.2091 28.214L48.1978 28.1392L48.2023 28.0593L48.2373 27.9835L49.0093 26.7795ZM32.9399 28.7653L32.9445 28.6987L32.9896 28.6372L33.072 28.5614L33.9953 27.8031L34.0867 27.7222L34.168 27.6269L34.2345 27.5326L34.2955 27.4281L34.3464 27.3195L34.3858 27.2058L34.4152 27.088L34.4343 26.9701L34.4434 26.8523L34.4411 26.7345L34.4298 26.6177L34.4073 26.4998L34.37 26.3871L34.3271 26.2795L34.2741 26.1771L34.2052 26.0787L34.1307 25.9906L34.0416 25.9065L33.9422 25.8369L33.8327 25.7724L33.7492 25.7354L33.6612 25.7037L33.5777 25.6719L33.484 25.6494L33.3959 25.6268L33.3023 25.6094L33.2086 25.5961L33.1092 25.5879L33.0167 25.5797L32.9174 25.5705L32.8248 25.5674L32.7266 25.5633L32.633 25.5602L32.5347 25.5613L32.441 25.5623L32.353 25.5633L32.2593 25.5643L32.1973 25.5654H32.1352L32.0686 25.5613L32.0008 25.5623L31.9275 25.5582L31.8553 25.5592L31.783 25.5602L31.7108 25.5613L31.6386 25.5664L31.5652 25.5715L31.4929 25.5817L31.4264 25.592L31.3586 25.6074L31.2921 25.6268L31.23 25.6555L31.1735 25.6842L31.1216 25.718L31.0708 25.7559L31.0302 25.8041L30.9884 25.8564L27.6159 31.2469L27.5605 31.3597V31.4396L27.6192 31.5195L27.6971 31.5605L27.8641 31.6015L28.0301 31.623L31.1803 31.5882L31.3202 31.5769L31.4647 31.5523L31.6148 31.5082L31.7638 31.455L31.9185 31.3822L32.0675 31.3054L32.2164 31.2142L32.3609 31.1096L32.4986 30.999L32.6318 30.8853L32.7548 30.7572L32.8666 30.6281L32.9637 30.4959L33.0494 30.3586L33.1205 30.2162L33.1758 30.0748L33.2097 29.9334L33.2232 29.7971L33.2165 29.6557L33.1838 29.5246L32.9625 28.8493L32.9399 28.7653ZM30.1374 29.1813L30.1927 29.1055L30.2649 29.0389L30.3417 28.9866L30.4342 28.9477L30.5279 28.9139L30.6306 28.8944L30.739 28.8831L30.8485 28.8821L30.9625 28.8903L31.072 28.9077L31.1859 28.9302L31.2954 28.962L31.4038 28.9979L31.5088 29.0399L31.6024 29.0901L31.6961 29.1413L31.7751 29.2017L31.8485 29.2612L31.9117 29.3268L31.9591 29.3924L31.9907 29.4528L32.0122 29.5235L32.0291 29.5932L32.0404 29.669L32.0415 29.7438L32.0325 29.8196L32.0223 29.8944L32.0031 29.9702L31.9783 30.041L31.9421 30.1076L31.9072 30.169L31.8665 30.2213L31.7853 30.3115L31.6927 30.3924L31.6002 30.4641L31.5031 30.5307L31.3947 30.5881L31.292 30.6363L31.178 30.6803L31.0652 30.7141L30.9455 30.749L30.827 30.7736L30.7085 30.7889L30.5843 30.8043L30.4602 30.8104L30.3349 30.8166L30.2062 30.8135L30.0821 30.8104L29.9568 30.7971L29.827 30.7848L29.7028 30.7674L29.5775 30.75L29.4579 30.7131L29.38 30.6486L29.3789 30.5728L29.4071 30.3986L29.4116 30.3565L29.4218 30.3186L30.1374 29.1813ZM32.1171 26.506L32.2153 26.4916L32.3079 26.4855L32.4016 26.4845L32.4896 26.4978L32.5777 26.5111L32.6611 26.5336L32.7447 26.5654L32.818 26.6023L32.8801 26.6443L32.9434 26.6945L32.9964 26.7509L33.0381 26.8072L33.0697 26.8728L33.0923 26.9425L33.1036 27.0173L33.0991 27.0982L33.0844 27.1823L33.0551 27.2724L33.0099 27.3626L32.9591 27.4476L32.9027 27.5234L32.8361 27.5952L32.7695 27.6566L32.6984 27.7181L32.6216 27.7714L32.5393 27.8185L32.4512 27.8626L32.3632 27.8964L32.2762 27.9302L32.1781 27.9589L32.0855 27.9794L31.9873 27.9948L31.8891 28.0102L31.7898 28.0153L31.6916 28.0163L31.5934 28.0173L31.4952 28.0091L31.3959 27.9968L31.2977 27.9835L31.204 27.961L31.1464 27.9384L31.1148 27.8964L31.1092 27.8349L31.1126 27.7407L31.1227 27.6935L31.143 27.6372L31.1622 27.5757L31.1927 27.5091L31.2277 27.4384L31.2683 27.3677L31.3135 27.2868L31.3643 27.2109L31.4151 27.1351L31.4715 27.0552L31.5279 26.9783L31.5832 26.9076L31.6442 26.8359L31.7006 26.7703L31.7627 26.7078L31.818 26.6556L31.8744 26.6084L31.9264 26.5746L31.9772 26.5459L32.0234 26.5265L32.1171 26.506ZM45.7711 15.9881L45.849 16.0158L45.9336 16.1039L45.9562 16.193L45.9167 16.3345L45.8524 16.4861L45.7824 16.6285L43.0385 21.0191L43.0035 21.0949L43.0058 21.1646L43.0272 21.2301L43.069 21.2865L43.1322 21.3275L43.2055 21.35L43.2619 21.3633L43.3252 21.3726L43.3873 21.3757L43.4493 21.3797L43.5114 21.3787L43.5735 21.3777L43.6356 21.3726L43.6976 21.3674L43.7541 21.352L43.8161 21.3418L43.8737 21.3223L43.9301 21.3019L43.9866 21.2783L44.0385 21.2496L44.0893 21.2199L44.1401 21.1871L44.1819 21.1482L44.2225 21.1103L44.262 21.0621L44.2925 21.015L47.314 16.2207L47.3851 16.1111L47.4461 16.0404L47.507 16.0014L47.5793 15.982L47.6729 15.9758L50.4078 15.9369L50.5793 15.9533L50.7464 15.9932L50.8344 16.0383L50.9089 16.1039L50.9507 16.1551L50.9823 16.2053L51.0094 16.2617L51.0264 16.3181L51.0433 16.3795L51.0489 16.44L51.05 16.5015L51.0467 16.5629L51.0421 16.6234L51.0331 16.69L51.0184 16.7515L51.0038 16.817L50.9846 16.8785L50.9643 16.94L50.9451 17.0015L50.9248 17.063L50.9056 17.1193L50.8864 17.1767L50.8661 17.2279L50.8209 17.3509L50.7611 17.4656L50.7013 17.5794L50.6302 17.688L50.5545 17.7884L50.4733 17.8827L50.3819 17.9738L50.2848 18.0599L50.1866 18.1368L50.0794 18.2085L49.9665 18.2761L49.8536 18.3345L49.7306 18.3878L49.6064 18.4319L49.4778 18.4667L49.3491 18.4964L49.2148 18.518L49.0748 18.5333L48.9348 18.5354L48.7949 18.5333L48.6335 18.521L48.4517 18.5098L48.2757 18.4841L48.1041 18.4483L47.9528 18.3899L46.8761 17.8499L46.7824 17.813L46.7203 17.814L46.6537 17.8622L46.6379 17.8673L46.5917 17.9144L46.577 17.9718L46.5995 18.061L46.6537 18.1962L47.2373 19.5713L47.3806 19.7762L47.6188 20.0826L47.7892 20.2875L47.8885 20.3899L47.9845 20.4822L48.0838 20.5703L48.1786 20.6533L48.2734 20.7322L48.3728 20.8019L48.4676 20.8705L48.5669 20.9309L48.6662 20.9904L48.7712 21.0406L48.875 21.0908L48.98 21.1369L49.094 21.1728L49.2091 21.2086L49.3288 21.2445L49.454 21.2711L49.5782 21.2967L49.7137 21.3193L49.8593 21.3408L50.0048 21.3572L50.0974 21.3654L50.1911 21.3736L50.2848 21.3767L50.3728 21.3797L50.4609 21.3787L50.5433 21.3777L50.6268 21.3715L50.7092 21.3561L50.787 21.3408L50.8593 21.3213L50.9315 21.2967L50.9981 21.268L51.0647 21.2291L51.1256 21.1861L51.1821 21.1328L51.2329 21.0764L51.2837 21.0098L51.3243 20.9341L51.3638 20.8531L51.3988 20.7588L51.418 20.6687L51.4067 20.6082L51.348 20.5713L51.234 20.5355L51.0365 20.5047L50.8243 20.5078L50.6121 20.516L50.4044 20.5098L50.3062 20.4965L50.2069 20.4842L50.1132 20.4709L50.015 20.4535L49.9157 20.432L49.822 20.4094L49.7238 20.3828L49.629 20.351L49.541 20.3141L49.4518 20.2783L49.3626 20.2373L49.2791 20.1911L49.1956 20.1451L49.1222 20.0897L49.0432 20.0303L48.9755 19.9699L48.9112 19.9002L48.8479 19.8305L48.7949 19.7516L48.7475 19.6676L48.7193 19.5733L48.7498 19.4842L48.8265 19.4401L48.9755 19.4196L49.1572 19.4073L49.3333 19.3909L49.5139 19.3643L49.6843 19.3387L49.8547 19.3038L50.0252 19.2588L50.19 19.2137L50.3502 19.1553L50.5049 19.0968L50.6584 19.0241L50.8074 18.9514L50.9462 18.8642L51.0839 18.7731L51.2126 18.6727L51.3401 18.562L51.4575 18.4472L51.5636 18.3243L51.6697 18.186L51.7656 18.0435L51.8514 17.8919L51.9271 17.7495L52.0027 17.6029L52.067 17.4462L52.1212 17.2904L52.1438 17.1347L52.2216 16.231L52.2262 16.1746L52.2352 16.1264L52.2453 16.0895L52.26 16.0517L52.2803 16.0229L52.3006 15.9994L52.3368 15.9799L52.3729 15.9645L52.4192 15.9553L52.4756 15.9451L52.5433 15.9389L52.6212 15.9338L52.7093 15.9318L52.8131 15.9359L59.363 15.9687L59.442 15.9871L59.5154 16.0229L59.5729 16.0793L59.6158 16.149L59.6271 16.2238L59.6079 16.2945L59.2298 16.898L59.1688 16.9882L59.1023 17.0404L59.0198 17.0609L58.8855 17.0722L55.2375 17.1234L54.9689 17.1419L54.7003 17.188L54.4215 17.2679L54.1483 17.3652L53.8809 17.4913L53.619 17.6367L53.3684 17.7997L53.128 17.9861L52.909 18.1829L52.7047 18.397L52.5275 18.6163L52.3706 18.854L52.2454 19.0907L52.1517 19.3366L52.0884 19.5866L52.067 19.8407L52.0817 20.0907L52.1426 20.3438L52.251 20.5867L52.4045 20.8244L52.5004 20.9309L52.6156 21.0232L52.7465 21.1113L52.8932 21.1892L53.0501 21.2527L53.2217 21.3111L53.3932 21.3562L53.5761 21.391L53.7623 21.4115L53.9497 21.4187L54.1303 21.4156L54.3064 21.3992L54.4825 21.3633L54.6416 21.3193L54.7962 21.2558L54.9294 21.1789L55.0525 21.0877L55.154 20.9781L55.2353 20.85L55.294 20.7035L55.3132 20.5949L55.2962 20.5242L55.2342 20.4729L55.1292 20.4422L55.0615 20.434L54.9949 20.4299L54.9215 20.4258L54.8493 20.432L54.777 20.4381L54.6991 20.4432L54.6269 20.4535L54.549 20.4647L54.4723 20.4699L54.3989 20.4801L54.3222 20.4863L54.2488 20.4873L54.1766 20.4883L54.1043 20.4852L54.0309 20.477L53.9632 20.4586L53.8955 20.4361L53.8334 20.4084L53.7702 20.3715L53.7127 20.3254L53.5761 20.1871L53.4847 20.0416L53.4305 19.892L53.4124 19.7465L53.4305 19.5959L53.4745 19.4442L53.5445 19.2977L53.6404 19.1501L53.7578 19.0128L53.8899 18.8745L54.0434 18.7495L54.2014 18.6255L54.3764 18.5148L54.5502 18.4134L54.7296 18.3264L54.9147 18.2474L55.0908 18.189L55.2658 18.1399L55.4306 18.1132L55.5863 18.1019L57.9905 18.0681L58.1248 18.0753L58.1981 18.103L58.2625 18.1767L58.2839 18.2526L58.2704 18.3796L58.2309 18.5159L58.1767 18.6348L56.6936 20.9934L56.6586 21.0744L56.6552 21.1492L56.6823 21.2148L56.7342 21.266L56.803 21.307L56.8866 21.3346L56.943 21.3429L57.0006 21.347L57.0582 21.3552L57.1202 21.3593L57.1823 21.3633L57.2444 21.3623L57.311 21.3613L57.373 21.3562L57.4408 21.35L57.5029 21.3398L57.565 21.3244L57.627 21.309L57.6835 21.2896L57.7399 21.2701L57.7963 21.2414L57.8482 21.2127L57.8945 21.1789L57.9351 21.141L57.9746 21.0979L58.0108 21.0498L60.9296 16.3375L60.9703 16.2801L61.0165 16.2228L61.0673 16.1756L61.1238 16.1367L61.1791 16.0988L61.2412 16.0598L61.3032 16.0312L61.3698 16.0014L61.4319 15.9727L61.4928 15.9482L61.5549 15.9236L61.617 15.899L61.6734 15.8754L61.7299 15.8457L61.7762 15.817L61.8224 15.7883L61.8631 15.7545L61.898 15.7217L61.924 15.6787L61.9443 15.6356L61.9579 15.5322L61.9251 15.4574L61.8574 15.402L61.7581 15.3846L42.438 15.3682L42.2992 15.3979L42.1604 15.4758L42.0531 15.5619L42.0125 15.6141L41.9775 15.6705L41.9628 15.7279L41.964 15.7842L41.9752 15.8354L42.0069 15.8775L42.0543 15.9092L42.1163 15.9369L42.1998 15.9451L43.2778 15.9768L43.3511 15.985L43.4076 15.9984L43.455 16.0219L43.4922 16.0537L43.5182 16.0906L43.5351 16.1336L43.5464 16.1798V16.2268L43.5374 16.2791L43.5272 16.3303L43.508 16.3826L43.4888 16.4349L43.4685 16.482L43.438 16.525L42.5904 17.8776L42.5148 17.9493L42.4109 18.0025L42.2924 18.0323L42.1739 18.0435L42.0701 18.0456L41.9504 18.0231L41.8929 17.9821L41.8601 17.8888L41.8376 17.771L41.8252 17.6583L41.8229 17.5456L41.8263 17.4421L41.8353 17.3427L41.8443 17.2443L41.8578 17.1449L41.8714 17.0507L41.8804 16.9564L41.8838 16.8621L41.8872 16.7689L41.8804 16.6746L41.8635 16.5752L41.8353 16.4769L41.798 16.3744L41.7495 16.2668L41.6795 16.1551L41.5949 16.0383L41.4888 15.9174L41.3623 15.7883L41.21 15.6633L41.0373 15.5567L40.8443 15.4614L40.6355 15.3836L40.4108 15.3211L40.1828 15.277L39.9436 15.2483L39.6998 15.233L39.4515 15.236L39.2077 15.2586L38.9706 15.2955L38.7381 15.3498L38.5214 15.4236L38.3114 15.5158L38.1263 15.6223L37.9514 15.7514L37.8047 15.8949L37.6828 16.0568L37.5925 16.2412L37.5281 16.44L37.5146 16.5291L37.5056 16.6142L37.5067 16.6982L37.5134 16.7832L37.5258 16.8683L37.5485 16.9472L37.5755 17.023L37.6072 17.1019L37.6455 17.1726L37.6873 17.2423L37.7403 17.3119L37.7934 17.3724L37.8566 17.4328L37.9198 17.4882L37.9932 17.5384L38.0665 17.5896L38.1512 17.6306L38.2336 17.6675L38.3228 17.6982L38.4164 17.7259L38.4943 17.7433L38.5722 17.7556L38.6557 17.7689L38.7381 17.7771L38.8216 17.7761L38.904 17.7751L38.9875 17.774L39.0699 17.7628L39.1467 17.7433L39.2201 17.7238L39.2923 17.6993L39.3589 17.6654L39.4198 17.6265L39.4763 17.5835L39.5271 17.5312L39.5677 17.4738L39.6027 17.4072L39.632 17.3314L39.6524 17.2515L39.6558 17.1623L39.6434 17.063L39.5655 17.0271L39.3059 16.9882L39.0508 16.94L38.9717 16.9042L38.8984 16.8529L38.8408 16.7832L38.7979 16.7177L38.781 16.6521L38.7742 16.5865L38.7844 16.5301L38.8149 16.4687L38.8498 16.4113L38.9006 16.359L38.9571 16.3109L39.0282 16.2679L39.1004 16.2248L39.1772 16.1859L39.2596 16.1521L39.342 16.1223L39.4244 16.0978L39.5068 16.0773L39.5902 16.067L39.6625 16.0568L39.7348 16.0557L39.7968 16.0547L39.8962 16.067L39.9944 16.0895L40.0835 16.1162L40.167 16.148L40.2506 16.1849L40.3228 16.2258L40.3917 16.2719L40.4549 16.3232L40.5181 16.3785L40.5711 16.439L40.6185 16.5045L40.6614 16.5691L40.693 16.6439L40.7258 16.7187L40.7528 16.7935L40.7698 16.8734L40.7867 16.9585L40.7935 17.0425L40.7946 17.1316L40.7912 17.2208L40.7867 17.273L40.7833 17.3253L40.7732 17.3765L40.7585 17.4339L40.7494 17.4902L40.7292 17.5425L40.71 17.5988L40.6896 17.6552L40.6648 17.7075L40.64 17.7597L40.6095 17.812L40.5745 17.855L40.5395 17.898L40.4932 17.9411L40.4515 17.9738L40.4007 18.0036L40.3488 18.0271L40.2923 18.0466L40.2314 18.0579L40.1637 18.063L37.3453 18.103L37.0755 18.1255L36.8126 18.1767L36.5597 18.2556L36.3238 18.3622L36.0981 18.4923L35.8881 18.646L35.694 18.813L35.5202 18.9944L35.3734 19.185L35.2482 19.3889L35.1522 19.5928L35.0788 19.8008L35.0405 20.0129L35.0337 20.2158L35.063 20.4176L35.1285 20.6041L35.2357 20.7813L35.3779 20.9443L35.5676 21.0877L35.8024 21.2107L36.0111 21.2927L36.2245 21.3562L36.4378 21.4043L36.6568 21.4392L36.8746 21.4546L37.0924 21.4566L37.3148 21.4433L37.5315 21.4166L37.7482 21.3808L37.9661 21.3305L38.1828 21.2711L38.3939 21.1973L38.5993 21.1195L38.8002 21.0273L39 20.9299L39.1907 20.8285L39.3804 20.7137L39.5598 20.5979L39.728 20.4729L39.8917 20.3439L39.9481 20.2957L40.0147 20.2342L40.0858 20.1625L40.1569 20.0815L40.2382 19.9955L40.3194 19.9043L40.4063 19.8141L40.4933 19.7188L40.5847 19.6235L40.6705 19.5282L40.7619 19.4329L40.8544 19.3469L40.9459 19.2659L41.0328 19.1891L41.1197 19.1215L41.2021 19.0641L41.2834 19.021L41.3612 18.9872L41.438 18.9719L41.5057 18.9657L41.5892 18.979L41.6513 19.0057L41.7043 19.0385L41.736 19.0805L41.7517 19.1317L41.7472 19.1881L41.7281 19.2547L41.6931 19.3254L40.675 20.9863L40.6208 21.1092L40.6264 21.1984L40.6964 21.2824L40.7946 21.3234L40.8781 21.3367L40.956 21.3449L41.0339 21.3531L41.1062 21.3572L41.1784 21.351L41.2461 21.3449L41.3138 21.3346L41.3804 21.3193L41.4425 21.3049L41.5046 21.2803L41.561 21.2516L41.6175 21.222L41.6739 21.1881L41.7247 21.1451L41.7755 21.1021L41.8218 21.0549L41.8725 21.0027L41.9188 20.9453L41.964 20.8879L42.0046 20.8213L44.9449 16.1367L45.0002 16.0609L45.0566 16.0168L45.139 16.0025L45.2688 15.9953L45.7711 15.9881ZM39.2641 18.9073L39.3476 18.9155L39.4142 18.9432L39.4672 18.9852L39.4989 19.0415L39.5101 19.1019L39.5011 19.1727L39.4706 19.2444L39.3995 19.3428L39.3081 19.4524L39.2009 19.5661L39.0778 19.6809L38.939 19.7957L38.79 19.9094L38.632 20.02L38.4672 20.1297L38.2923 20.226L38.1117 20.3172L37.9322 20.3992L37.7516 20.4668L37.571 20.5211L37.3949 20.5559L37.2189 20.5764L37.053 20.5733L36.8927 20.5518L36.7459 20.5067L36.606 20.433L36.4852 20.3305L36.4118 20.2424L36.3531 20.1532L36.3159 20.059L36.299 19.9658L36.2922 19.8715L36.3069 19.7772L36.3317 19.6829L36.3712 19.5887L36.4265 19.5036L36.4886 19.4175L36.5597 19.3325L36.6421 19.2608L36.729 19.1891L36.8216 19.1225L36.9186 19.0692L37.0213 19.021L37.1252 18.9831L37.2279 18.9534L37.3363 18.9329L37.4401 18.9278L39.2641 18.9073ZM99.5517 13.6755L99.4749 13.6807L99.3914 13.6858L99.309 13.7001L99.221 13.7145L99.1284 13.739L99.0347 13.7626L98.9366 13.7923L98.844 13.8251L98.7458 13.8589L98.6532 13.903L98.5607 13.946L98.4738 13.9891L98.3858 14.0372L98.2988 14.0844L98.2221 14.1376L98.1499 14.1909L98.0776 14.2432L98.0166 14.2965L97.9647 14.3538L97.9196 14.4112L97.415 15.0906L97.3496 15.1715L97.2931 15.234L97.2412 15.277L97.1848 15.3057L97.1126 15.32L97.0302 15.3303H96.9218L79.1797 15.3221L79.0713 15.3231L78.9833 15.3139L78.9156 15.2996L78.8523 15.2658L78.8004 15.2227L78.7429 15.1612L78.674 15.0803L77.8839 14.0567L77.8049 13.9706L77.7361 13.9184L77.6424 13.8999L77.5024 13.8948L76.8398 13.8969L76.7563 13.9071L76.6954 13.9409L76.6547 13.9932L76.6345 14.0506L76.6254 14.1172L76.6367 14.1848L76.6626 14.2514L76.7687 14.404L76.8895 14.5516L77.0115 14.694L77.1266 14.8416L77.2225 14.9993L77.244 15.0701L77.2496 15.1274L77.2406 15.1807L77.2101 15.2238L77.1683 15.2565L77.122 15.2811L77.0599 15.3047L76.9979 15.3149L76.9313 15.3242L76.8591 15.3252L64.4218 15.2238L64.2875 15.2575L64.1543 15.3395L64.0516 15.4256L64.011 15.483L63.9862 15.5404L63.9805 15.5885L63.9816 15.6356L63.9974 15.6787L64.0245 15.7166L64.0606 15.7504L64.108 15.774L64.16 15.7976L64.2175 15.8119L64.2796 15.8262H64.3473L67.8294 15.858L67.9953 15.8672L68.0788 15.901L68.1262 15.9861L68.1375 16.0957L68.0935 16.2535L68.0077 16.4021L67.9671 16.4543L67.905 16.4933L67.7865 16.5128L67.6409 16.5035L67.475 16.4799L67.3035 16.442L67.1318 16.4L66.9761 16.3621L66.8406 16.3436L66.6431 16.3201L66.4411 16.3017L66.2345 16.2883L66.0167 16.2791L65.8034 16.2699L65.581 16.2709L65.3632 16.276L65.1408 16.2914L64.923 16.316L64.7119 16.3498L64.5042 16.3939L64.2977 16.4461L64.1024 16.5138L63.9162 16.5957L63.7424 16.692L63.5776 16.8017L63.4241 16.9267L63.2909 17.0701L63.1689 17.2279L63.0629 17.4103L62.9624 17.649L62.9229 17.854L62.9252 18.0404L62.9793 18.1983L63.0742 18.3315L63.2051 18.4462L63.3676 18.5405L63.555 18.6214L63.7683 18.687L63.9974 18.7393L64.2356 18.7813L64.4907 18.814L64.739 18.8376L64.993 18.8602L65.2367 18.8786L65.4761 18.897L65.6939 18.9155L65.8903 18.9339L66.0675 18.9616L66.2131 18.9995L66.2909 19.0282L66.3587 19.061L66.4219 19.0999L66.4738 19.1471L66.5156 19.1952L66.5528 19.2475L66.5799 19.3038L66.6014 19.3612L66.6171 19.4237L66.6239 19.4852V19.5518L66.6149 19.6143L66.6002 19.6768L66.5754 19.7383L66.5449 19.8008L66.5088 19.8582L66.4682 19.9115L66.4173 19.9637L66.3666 20.0119L66.3045 20.0549L66.186 20.1071L66.0822 20.1082L65.9986 20.0559L65.914 19.9411L65.8034 19.7793L65.6724 19.6368L65.5302 19.5078L65.3688 19.394L65.1961 19.2946L65.0133 19.2137L64.8259 19.143L64.6239 19.0907L64.4207 19.0487L64.2085 19.0251L63.9952 19.0118L63.783 19.0169L63.5708 19.0272L63.3642 19.0559L63.1577 19.0948L62.9556 19.1481L62.7649 19.2106L62.5798 19.2834L62.4094 19.3694L62.2446 19.4698L62.1576 19.5467L62.0865 19.643L62.0256 19.7526L61.9804 19.8674L61.9409 19.9873L61.9116 20.0918L61.8913 20.183L61.8822 20.269L61.8833 20.3551L61.8901 20.4361L61.9116 20.5118L61.9387 20.5887L61.9703 20.6645L62.0132 20.7311L62.0606 20.8029L62.1136 20.8654L62.1712 20.9268L62.2344 20.9883L62.3021 21.0406L62.3698 21.0928L62.4432 21.1451L62.5222 21.1933L62.6001 21.2353L62.678 21.2783L62.757 21.3162L62.8405 21.349L62.9545 21.4064L63.0177 21.4535L63.0493 21.516L63.0561 21.6113L63.0166 21.8029L62.9782 21.9935L62.9895 22.099L63.0211 22.1605L63.0787 22.1984L63.1882 22.2271L63.3755 22.265L63.5358 22.2927L63.6814 22.3019L63.8112 22.306L63.9252 22.2958L64.0234 22.2773L64.1058 22.2476L64.1825 22.2138L64.2503 22.1759L64.3112 22.1277L64.3677 22.0755L64.4241 22.0222L64.4805 21.9658L64.537 21.9074L64.5923 21.8449L64.6589 21.7875L64.7311 21.7261L64.8079 21.6728L64.9004 21.6154L65.0031 21.5672L65.2097 21.4904L65.4208 21.4228L65.6375 21.3603L65.8553 21.3019L66.072 21.2445L66.2887 21.182L66.4953 21.1092L66.6386 21.0519L66.7786 20.9791L66.9219 20.8981L67.0551 20.807L67.1883 20.7014L67.317 20.5908L67.4344 20.4719L67.5472 20.3469L67.6488 20.2178L67.7402 20.0785L67.8215 19.9401L67.8926 19.7967L67.9411 19.6491L67.9761 19.5005L67.9998 19.3479L67.9976 19.1993L67.9806 19.0518L67.9423 18.9042L67.8836 18.7608L67.7989 18.6184L67.6826 18.4749L67.5517 18.3612L67.405 18.2659L67.2436 18.1952L67.0777 18.1429L66.9005 18.105L66.7187 18.0763L66.5325 18.063L66.3406 18.0589L66.1488 18.0599H65.9569L65.765 18.0651L65.5844 18.0712H65.4027L65.2311 18.062L65.0708 18.0487L64.9196 18.02L64.7853 17.9779L64.6656 17.9206L64.5606 17.8448L64.5019 17.7679L64.4805 17.6736L64.4997 17.5876L64.5606 17.5005L64.6532 17.4195L64.7559 17.3529L64.8688 17.2996L64.9884 17.2607L65.1115 17.2361L65.3169 17.2115L65.4388 17.2054L65.6916 17.2064L65.8011 17.2105L65.9038 17.2146L66.0189 17.2197L66.1273 17.2238L66.2356 17.2279L66.3508 17.233L66.4636 17.2372L66.5732 17.2423L66.6871 17.2464L66.7955 17.2556L66.9106 17.2689L67.019 17.2832L67.1284 17.3028L67.238 17.3211L67.3418 17.3488L67.4501 17.3775L67.5495 17.4154L67.6533 17.4585L67.747 17.5056L67.8463 17.562L67.8881 17.5865L67.9411 17.6142L67.9931 17.6388L68.0506 17.6624L68.1071 17.6859L68.1703 17.7003L68.2323 17.7136L68.2888 17.7187L68.352 17.7238L68.4084 17.7136L68.4603 17.7044L68.5111 17.6798L68.5631 17.646L68.6037 17.6081L68.6443 17.5558L69.4706 16.1634L69.5258 16.068L69.5777 15.9963L69.6286 15.9482L69.6793 15.9144L69.7369 15.8948L69.8091 15.8857H69.9028L77.1977 15.9061L77.271 15.9103L77.3331 15.9246L77.3952 15.9482L77.4426 15.982L77.4843 16.025L77.516 16.067L77.5374 16.1203L77.5385 16.1777L77.5284 16.2391L77.499 16.3017L76.7732 17.5302L76.7225 17.5978L76.6615 17.6501L76.5949 17.689L76.5227 17.7075L76.4448 17.7033L76.3714 17.6849L76.3037 17.6367L76.1784 17.5425L76.0475 17.4616L75.9121 17.4001L75.7766 17.3529L75.6367 17.3191L75.491 17.3007L75.3455 17.2915L75.1953 17.2925L75.0452 17.3017L74.8951 17.3212L74.7461 17.3509L74.596 17.3847L74.4515 17.4277L74.3014 17.4718L74.1569 17.5199L74.0125 17.5681L73.8736 17.6203L73.7393 17.6736L73.6049 17.7218L73.4763 17.7751L73.3578 17.7843L73.2427 17.728L73.0801 17.6234L72.9244 17.5087L72.7618 17.4042L72.5948 17.314L72.4074 17.2484L72.1264 17.1921L71.842 17.1634L71.5462 17.1603L71.246 17.19L70.9458 17.2382L70.6466 17.315L70.352 17.4113L70.0642 17.5271L69.7911 17.6665L69.5292 17.8243L69.2877 17.9974L69.0619 18.189L68.8678 18.395L68.6951 18.6152L68.5529 18.8448L68.4468 19.0887L68.3734 19.3418L68.3396 19.5999L68.3486 19.8715L68.4039 20.144L68.4581 20.2916L68.5382 20.435L68.633 20.5682L68.7481 20.7014L68.8791 20.8203L69.0258 20.9299L69.1771 21.0293L69.3441 21.1154L69.5112 21.1912L69.6827 21.2475L69.8599 21.2854L70.0315 21.309L70.2019 21.3131L70.3622 21.2937L70.5225 21.2547L70.667 21.1871L70.7956 21.101L70.913 20.9863L71.0146 20.8428L71.0903 20.6707L71.1196 20.56L71.1139 20.4883L71.0553 20.4361L70.957 20.4033L70.8013 20.3797L70.6455 20.3756L70.4852 20.3715L70.3295 20.3571L70.1782 20.3295L70.0281 20.268L69.834 20.1297L69.703 19.977L69.6331 19.8059L69.615 19.6297L69.6443 19.4432L69.7189 19.2567L69.8306 19.0702L69.9728 18.8878L70.1421 18.7157L70.3318 18.5579L70.5372 18.4135L70.7527 18.2884L70.974 18.188L71.1963 18.1163L71.4074 18.0722L71.6151 18.062L71.8024 18.0948L71.9684 18.1665L72.1049 18.2843L72.211 18.4514L72.2381 18.5231L72.2494 18.5897L72.255 18.6573L72.2505 18.7188L72.2415 18.7813L72.2212 18.8427L72.2009 18.9002L72.1715 18.9575L72.141 19.02L72.1049 19.0774L72.0699 19.1348L72.0338 19.1922L71.9932 19.2495L71.9627 19.3069L71.9277 19.3643L71.9029 19.4217L71.8769 19.4842L71.8577 19.5457L71.8476 19.6082L71.8442 19.6748L71.8555 19.7608L71.9074 19.809L72.027 19.8459L72.1208 19.8694L72.2302 19.8838L72.3487 19.8981L72.474 19.9073L72.5982 19.9063L72.7224 19.8971L72.8364 19.8817L72.9391 19.8582L73.0271 19.8192L73.1038 19.767L73.1761 19.7137L73.2427 19.6512L73.2991 19.5846L73.3544 19.5077L73.4109 19.4319L73.4616 19.3499L73.517 19.269L73.5678 19.187L73.6231 19.102L73.6795 19.0149L73.7404 18.9339L73.807 18.853L73.8781 18.771L73.9549 18.6952L74.0418 18.6224L74.1344 18.5559L74.2371 18.4933L74.3556 18.4401L74.4797 18.3919L74.5824 18.3684L74.6863 18.3437L74.7947 18.3335L74.9041 18.3294L75.0125 18.3335L75.1163 18.3468L75.2202 18.3663L75.3195 18.395L75.4132 18.4319L75.4967 18.4749L75.5746 18.5231L75.6378 18.5794L75.6954 18.646L75.7383 18.7178L75.7698 18.7987L75.7811 18.8848L75.7823 18.9759L75.7586 19.0753L75.7236 19.1809L75.6626 19.2956L74.6129 21.0365L74.5734 21.142L74.6163 21.2424L74.6321 21.266L74.684 21.3326L74.7518 21.3613L74.8657 21.3654L75.4459 21.3633L75.5452 21.3582L75.622 21.3388L75.6784 21.3009L75.7405 21.2342L75.8116 21.1287L78.8444 16.2207L78.9099 16.1162L78.9664 16.0393L79.0171 15.982L79.0691 15.943L79.1255 15.9246L79.1876 15.9144L79.2711 15.9092L82.752 15.899L82.9134 15.9318L83.0647 15.9984L83.1324 16.0455L83.1539 16.1029L83.1346 16.2033L83.1053 16.3088L83.0602 16.4185L82.9992 16.524L82.9326 16.6193L82.8513 16.7054L82.7588 16.7771L82.682 16.816L82.5997 16.8345L82.454 16.8355L82.2881 16.817L82.1064 16.7884L81.9134 16.7556L81.7215 16.7279L81.5296 16.7095L81.3535 16.7054L81.2091 16.7156L81.059 16.7248L80.9088 16.7443L80.7644 16.7689L80.6142 16.7935L80.4698 16.8273L80.3242 16.8611L80.1797 16.9L80.0352 16.9482L79.8907 16.9963L79.7519 17.0486L79.6176 17.107L79.4788 17.1695L79.3501 17.232L79.2158 17.3037L79.0928 17.3755L78.9697 17.4523L78.8512 17.5384L78.7338 17.6245L78.6255 17.7115L78.5183 17.8027L78.411 17.9032L78.3038 18.0087L78.1966 18.1183L78.0939 18.2331L77.9923 18.353L77.8952 18.482L77.8038 18.6112L77.7225 18.7403L77.6469 18.8796L77.5859 19.0128L77.5363 19.1512L77.4967 19.2946L77.4731 19.4339L77.4641 19.5764L77.4765 19.7157L77.5047 19.853L77.5521 19.9914L77.6277 20.1297L77.7169 20.2639L77.7902 20.3438L77.8647 20.4258L77.9426 20.5016L78.0216 20.5733L78.1051 20.6389L78.1988 20.6963L78.2936 20.7486L78.3975 20.7957L78.5069 20.8336L78.621 20.8623L78.735 20.8859L78.8501 20.8992L78.9641 20.9094L79.0781 20.9084H79.1921L79.3106 20.9033L79.4246 20.893L79.5386 20.8838L79.6571 20.8736L79.7711 20.8633L79.8851 20.849L79.9991 20.8387L80.1075 20.8428L80.1707 20.8766L80.1978 20.9289L80.2079 21.0058L80.2102 21.1011L80.2169 21.2056L80.2384 21.2773L80.27 21.3203L80.3276 21.349L80.4156 21.3674L80.6018 21.391H80.7734L80.9292 21.3756L81.068 21.3367L81.1967 21.2886L81.3095 21.222L81.4122 21.14L81.5048 21.0488L81.5917 20.9484L81.673 20.8428L81.7486 20.724L81.8197 20.6041L81.8908 20.4801L81.9563 20.351L82.0274 20.2219L82.103 20.0979L82.1798 19.9678L82.2611 19.8489L82.3524 19.7342L82.4495 19.6235L82.5872 19.4842L82.7204 19.3602L82.8479 19.2403L82.9766 19.1348L83.1042 19.0343L83.2283 18.939L83.3559 18.852L83.48 18.771L83.6087 18.6982L83.7374 18.6266L83.8649 18.564L83.9993 18.5016L84.1381 18.439L84.278 18.3816L84.427 18.3284L84.5816 18.271L84.7419 18.2177L84.9067 18.1645L85.0828 18.107L85.2679 18.0497L85.3198 18.0302L85.3707 18.0056L85.4169 17.9769L85.4688 17.9431L85.5151 17.9052L85.5614 17.8673L85.6065 17.8243L85.6483 17.7761L85.6889 17.7238L85.7239 17.6757L85.76 17.6224L85.7905 17.565L85.8153 17.5128L85.8345 17.4554L85.8548 17.398L85.865 17.3458L85.874 17.2925V17.2402L85.8729 17.188L85.8413 17.0876L85.7521 17.0404L85.6223 17.0117L85.4609 16.9933L85.295 16.9943L85.1404 17.0035L85.0061 17.0332L84.0975 17.2986H84.0094L83.9361 17.2515L83.8988 17.1747L83.9236 17.0988L84.5173 16.1275L84.5828 16.0219L84.6449 15.9645L84.716 15.941L84.8255 15.9359L90.8776 15.9174L91.0119 15.9215L91.1677 15.9399L91.3133 15.983L91.4228 16.0486L91.4916 16.1449L91.4769 16.2494L91.4521 16.3027L91.4273 16.3549L91.4013 16.4072L91.3663 16.4554L91.3302 16.5025L91.2952 16.5455L91.2534 16.5896L91.2072 16.6224L91.1609 16.6562L91.1101 16.6797L91.0536 16.6992L90.9961 16.7095L90.934 16.7146H90.8719L90.8042 16.7002L90.6541 16.6726L90.5085 16.649L90.3584 16.6254L90.2071 16.6111L90.0525 16.6019L89.9012 16.5977L89.7511 16.5937H89.601L89.4453 16.5947L89.2952 16.5998L89.145 16.605L88.917 16.6203L88.6902 16.6398L88.4622 16.6695L88.2342 16.7084L88.0073 16.7566L87.7804 16.815L87.558 16.8816L87.3414 16.9544L87.1303 17.0404L86.9237 17.1367L86.724 17.2382L86.5332 17.3529L86.3481 17.4779L86.1788 17.6122L86.0151 17.7608L85.8672 17.9185L85.7296 18.0855L85.6076 18.2628L85.5016 18.4544L85.4056 18.6552L85.365 18.7557L85.33 18.8653L85.3006 18.9708L85.2713 19.0804L85.2465 19.1901L85.2273 19.2997L85.2137 19.4104L85.2047 19.52L85.2058 19.6297L85.207 19.7393L85.2194 19.8449L85.2363 19.9545L85.2634 20.059L85.2961 20.1635L85.339 20.269L85.3864 20.3695L85.4451 20.4648L85.514 20.5601L85.5873 20.6502L85.6765 20.7404L85.7815 20.8305L85.891 20.9115L86.0061 20.9832L86.1269 21.0539L86.2521 21.1164L86.3763 21.1728L86.5016 21.225L86.6325 21.2773L86.7623 21.3347L86.8876 21.3859L86.9655 21.4289L87.0129 21.4761L87.0287 21.5242L87.0242 21.5765L86.9994 21.6246L86.9644 21.6769L86.9124 21.725L86.856 21.7681L86.8052 21.8111L86.7386 21.8644L86.6923 21.9166L86.6619 21.9699L86.6517 22.0171L86.6732 22.0652L86.7262 22.1031L86.8142 22.1308L86.9079 22.1503L87.0016 22.1636L87.0896 22.1687L87.1721 22.1728L87.2555 22.1677L87.3323 22.1584L87.4158 22.1441L87.4881 22.1246L87.5648 22.1052L87.6427 22.0806L87.7195 22.057L87.7973 22.0273L87.8752 21.9986L87.9576 21.9699L88.04 21.9412L88.1224 21.9126L88.2364 21.8787L88.303 21.8931L88.3718 21.9505L88.4339 22.0068L88.5028 22.0642L88.566 22.1113L88.6382 22.1492L88.7116 22.1779L88.7895 22.1964L88.8719 22.2066L88.9599 22.2056L89.0536 22.1912L89.1304 22.1677L89.1981 22.1236L89.2839 22.0089L89.3132 21.8798L89.3279 21.7414L89.3516 21.6082L89.417 21.4935L89.5355 21.4115L89.5965 21.3777L89.6642 21.3449L89.7308 21.3152L89.7929 21.2824L89.8595 21.2486L89.9216 21.2097L89.9825 21.1758L90.0401 21.1328L90.0954 21.0949L90.1529 21.0519L90.2038 21.0088L90.25 20.9607L90.2952 20.9084L90.3369 20.8551L90.3719 20.7977L90.4024 20.7404L90.4272 20.6738L90.4521 20.6061L90.4667 20.5355L90.4758 20.4586L90.4746 20.3684L90.4634 20.311L90.4317 20.2824L90.3697 20.268H90.2715L89.9927 20.3069L89.7184 20.3746L89.4453 20.4381L89.3053 20.4576L89.1608 20.4822L89.0209 20.5016L88.8809 20.516L88.7409 20.5355L88.6021 20.5457L88.4667 20.5559L88.3323 20.561H88.198L88.0626 20.5518L87.9282 20.5426L87.7985 20.5242L87.6687 20.5006L87.5434 20.4678L87.4181 20.4248L87.2939 20.3776L87.1687 20.3213L87.0479 20.2496L86.9339 20.1738L86.8131 20.0826L86.7714 20.0405L86.7296 19.9975L86.6923 19.9545L86.6607 19.9073L86.6291 19.8592L86.602 19.8069L86.5806 19.7547L86.5648 19.7024L86.5478 19.645L86.5366 19.5917L86.5309 19.5354L86.5253 19.478L86.5242 19.4206L86.523 19.3633L86.5276 19.3058L86.5377 19.2485L86.5467 19.1962L86.5569 19.1379L86.5772 19.0856L86.5919 19.0333L86.6777 18.8417L86.7838 18.6696L86.9012 18.5118L87.0388 18.3684L87.1923 18.2392L87.3571 18.1234L87.5321 18.023L87.7172 17.9319L87.9125 17.855L88.1145 17.7874L88.3256 17.729L88.5378 17.6808L88.7545 17.6429L88.9723 17.6132L89.189 17.5937L89.4069 17.5835L89.6247 17.5773H89.8313L90.0389 17.5814L90.2365 17.5948L90.3144 17.6039L90.3968 17.6183L90.4904 17.6367L90.5841 17.6603L90.688 17.6839L90.7873 17.7126L90.8956 17.7413L90.9995 17.7638L91.109 17.7884L91.2184 17.8109L91.3223 17.8304L91.4261 17.8396L91.5244 17.8489L91.6225 17.8478L91.7106 17.8386L91.793 17.8191L91.8708 17.7904L91.9431 17.7525L92.004 17.6942L92.0549 17.6275L92.8562 16.3314L92.9431 16.1972L93.0086 16.1019L93.0707 16.0393L93.1271 16.0056L93.1892 15.9912L93.2671 15.9861L94.0899 15.984L94.205 15.9974L94.2784 16.0783L94.284 16.0926L94.3213 16.1644L94.3167 16.2361L94.2615 16.3365L91.4273 21.0764L91.372 21.182L91.3618 21.2486L91.4002 21.3244H91.4047L91.4521 21.391L91.5153 21.4197L91.6135 21.4238L92.2761 21.4228L92.3596 21.4218L92.4262 21.4176L92.4837 21.4023L92.5345 21.3787L92.5808 21.35L92.6226 21.307L92.6677 21.2496L92.7185 21.1728L92.7794 21.0816L95.7152 16.2361L95.7514 16.1787L95.8021 16.1316L95.854 16.0926L95.9105 16.0547L95.9714 16.026L96.0335 16.0065L96.1012 15.9922L96.1735 15.9768L96.2401 15.9727H96.3135L96.3857 15.9769L96.4534 15.981L96.5211 15.9902L96.5934 16.0148L96.6509 16.0619L96.6926 16.1234L96.7153 16.1951L96.7164 16.2668L96.7062 16.3436L96.6769 16.4103L93.8427 21.1215L93.8021 21.2168L93.8506 21.3172L93.8721 21.3551L93.924 21.4218L93.9872 21.4504L94.1012 21.4546L94.5978 21.4535H94.7073L94.7954 21.4484L94.8619 21.433L94.9195 21.4146L94.9703 21.3859L95.0109 21.3418L95.0515 21.2855L95.0978 21.2137L98.1747 16.1142L98.2108 16.0619L98.2469 16.024L98.292 15.9902L98.3541 15.9707L98.432 15.9563L98.5359 15.9461H98.6645L98.8361 15.9451L105.302 15.9738L105.406 15.983L105.49 16.0107L105.558 16.0588L105.6 16.1254L105.612 16.2115L105.603 16.2832L105.588 16.359L105.568 16.4266L105.538 16.4984L105.508 16.565L105.467 16.6316L105.427 16.6941L105.38 16.7515L105.33 16.8088L105.273 16.8611L105.217 16.9093L105.15 16.9574L105.088 16.9953L105.021 17.0343L104.949 17.0681L104.877 17.0917L104.805 17.1162L104.727 17.1306L104.65 17.1408H104.572L100.012 17.1542L99.826 17.1644L99.6397 17.1798L99.4591 17.2085L99.2785 17.2474L99.0968 17.2956L98.9219 17.3581L98.7526 17.4257L98.5821 17.5025L98.423 17.5886L98.2627 17.6849L98.1092 17.7853L97.9658 17.896L97.827 18.0107L97.6938 18.1358L97.5719 18.2648L97.4591 18.3991L97.3518 18.5374L97.2616 18.686L97.1746 18.8335L97.099 18.9872L97.0539 19.102L97.0143 19.2167L96.985 19.3356L96.9602 19.4606L96.941 19.5846L96.9275 19.7137L96.9286 19.8376L96.9309 19.9617L96.9478 20.0907L96.9703 20.2147L96.9974 20.3336L97.0415 20.4535L97.0889 20.5672L97.1521 20.6768L97.2209 20.7772L97.2999 20.8766L97.3902 20.9719L97.4941 21.0529L97.6047 21.1338L97.73 21.2004L97.9015 21.2762L98.0787 21.3429L98.2605 21.3951L98.4523 21.4371L98.6499 21.4648L98.8474 21.4832L99.0449 21.4925L99.2458 21.4914L99.4434 21.472L99.6397 21.4474L99.8361 21.4043L100.027 21.3562L100.213 21.2886L100.388 21.2117L100.557 21.1246L100.717 21.0201L100.866 20.9043L101.004 20.7803L101.126 20.6359L101.238 20.4832L101.279 20.4166L101.325 20.3438L101.376 20.268L101.421 20.1911L101.466 20.1102L101.512 20.0241L101.557 19.9381L101.598 19.852L101.633 19.7659L101.662 19.6748L101.687 19.5846L101.708 19.4934L101.717 19.4073L101.72 19.3171L101.714 19.2311L101.692 19.145L101.665 19.0589L101.622 18.978L101.57 18.9022L101.501 18.8253L101.459 18.7966L101.413 18.769L101.36 18.7454L101.298 18.7218L101.23 18.7023L101.158 18.688L101.084 18.6788L101.007 18.6696L100.929 18.6655L100.856 18.6706L100.78 18.6747L100.706 18.685L100.64 18.7044L100.578 18.7239L100.521 18.7526L100.469 18.7854L100.429 18.8243L100.398 18.8673L100.378 18.9196L100.369 18.977L100.371 19.1399L100.378 19.2926L100.38 19.4401L100.361 19.5928L100.311 19.7557L100.261 19.8561L100.205 19.9463L100.144 20.0375L100.073 20.1194L99.9908 20.1963L99.9095 20.2629L99.8215 20.3203L99.7289 20.3776L99.6307 20.4217L99.528 20.4555L99.4253 20.4842L99.3215 20.5037L99.2131 20.5129L99.1093 20.5088L98.9997 20.4996L98.8959 20.476L98.7921 20.4432L98.6927 20.3951L98.5934 20.3387L98.4998 20.267L98.4467 20.2199L98.3993 20.1676L98.3632 20.1154L98.3259 20.0579L98.2988 19.9955L98.283 19.9381L98.2661 19.8715L98.2548 19.81L98.2492 19.7424L98.2537 19.6809L98.2582 19.6143L98.2672 19.5467L98.2763 19.4801L98.2966 19.4175L98.3158 19.3509L98.3417 19.2885L98.3665 19.227L98.397 19.1696L98.4275 19.1122L98.4625 19.0589L98.5393 18.9544L98.6205 18.8581L98.7074 18.7721L98.7943 18.686L98.8925 18.6091L98.9953 18.5425L99.098 18.4749L99.2052 18.4175L99.3192 18.3642L99.432 18.3161L99.5506 18.2782L99.6702 18.2392L99.7932 18.2105L99.9174 18.1808L100.042 18.1573L100.171 18.1419L100.3 18.1276L100.43 18.1173L100.56 18.1122H100.688L103.922 18.1019H103.989L104.052 18.1112L104.114 18.1255L104.171 18.145L104.218 18.1726L104.265 18.2013L104.297 18.2392L104.323 18.2823L104.334 18.3304L104.335 18.3827L104.32 18.4401L104.29 18.5026L102.805 21.0375L102.775 21.099L102.755 21.1656L102.75 21.2281L102.762 21.2906L102.783 21.3429L102.825 21.39L102.883 21.4279L102.956 21.4525L103.012 21.4617L103.07 21.4709L103.132 21.475L103.2 21.4801H103.262L103.334 21.4791L103.402 21.475L103.468 21.4648L103.536 21.4545L103.603 21.4402L103.67 21.4207L103.732 21.4023L103.789 21.3777L103.845 21.349L103.897 21.3152L103.943 21.2773L103.978 21.2342L104.015 21.1861L107.02 16.193L107.082 16.107L107.133 16.0496L107.19 16.0158L107.266 16.0014L107.376 15.9953L111.686 15.983L111.764 16.0065L111.849 16.0773L111.885 16.1541L111.877 16.2689L111.847 16.3785L111.802 16.4738L111.746 16.5558L111.68 16.6224L111.607 16.6756L111.525 16.7187L111.432 16.7525L111.34 16.772L111.236 16.7863L111.128 16.7955L111.018 16.7965L110.91 16.7914L110.796 16.7873L110.682 16.7781L110.568 16.7689L110.453 16.7546L110.344 16.7463L110.241 16.7412L110.137 16.7371H110.038L109.862 16.7474L109.676 16.7668L109.484 16.7914L109.288 16.8252L109.081 16.8642L108.875 16.9082L108.663 16.9615L108.452 17.0189L108.239 17.0865L108.034 17.1583L107.827 17.2361L107.632 17.3222L107.436 17.4093L107.251 17.5097L107.076 17.6101L106.912 17.7208L106.757 17.8355L106.62 17.9554L106.497 18.0804L106.389 18.2147L106.293 18.353L106.196 18.5016L106.105 18.6542L106.014 18.812L105.939 18.98L105.863 19.1471L105.804 19.3141L105.754 19.4811L105.72 19.6532L105.701 19.8151L105.697 19.9781L105.716 20.1348L105.754 20.2885L105.818 20.4309L105.903 20.5641L106.018 20.6881L106.16 20.8029L106.327 20.9023L106.53 20.9873L106.764 21.059L106.878 21.0815L106.988 21.1011L107.097 21.1143L107.2 21.1236H107.397L107.496 21.1185L107.594 21.1133L107.687 21.1031L107.786 21.0888L107.878 21.0744L107.972 21.059L108.064 21.0447L108.163 21.0252L108.261 21.0109L108.354 20.9965L108.457 20.9811L108.555 20.9719L108.659 20.9617L108.768 20.9566L108.861 20.9617L108.919 20.9853L108.945 21.0519L108.957 21.1666L108.964 21.2619L108.985 21.3234L109.022 21.3664L109.09 21.3951L109.189 21.4187L109.251 21.433L109.313 21.4423L109.386 21.4463L109.458 21.4566L109.531 21.4556H109.686L109.764 21.4504L109.842 21.4361L109.919 21.4259L109.987 21.4063L110.059 21.3828L110.121 21.3541L110.177 21.3203L110.228 21.2824L110.269 21.2394L110.427 21.0232L110.569 20.7896L110.695 20.5498L110.832 20.3203L110.893 20.225L110.96 20.1338L111.031 20.0426L111.102 19.9565L111.184 19.8653L111.26 19.7844L111.347 19.6983L111.434 19.6215L111.522 19.5405L111.614 19.4637L111.706 19.3909L111.803 19.3151L111.901 19.2475L111.998 19.1758L112.101 19.1081L112.199 19.0466L112.302 18.9841L112.404 18.9217L112.507 18.8642L112.61 18.8059L112.728 18.7433L112.857 18.686L112.986 18.6337L113.126 18.5856L113.264 18.5374L113.404 18.4933L113.543 18.4452L113.682 18.4022L113.822 18.354L113.955 18.3058L114.084 18.2526L114.208 18.2003L114.326 18.1419L114.439 18.0794L114.538 18.0128L114.629 17.9359L114.706 17.855L114.772 17.7638L114.823 17.6685L114.858 17.5578L114.872 17.4482L114.855 17.3714L114.797 17.3201L114.688 17.272L114.605 17.2535L114.506 17.2392L114.398 17.2351H114.273L114.149 17.2453L114.019 17.2556L113.89 17.2751L113.761 17.2945L113.641 17.314L113.534 17.3427L113.436 17.3662L113.358 17.3909L112.74 17.6224L112.662 17.6265L112.594 17.5794L112.551 17.5128L112.566 17.4462L113.291 16.2648L113.352 16.1879L113.445 16.1111L113.548 16.0393L113.656 15.9912L113.759 15.9717L118.981 15.9553L119.049 15.9646L119.111 15.9789L119.163 16.0035L119.21 16.0363L119.248 16.0793L119.279 16.1264L119.306 16.1787L119.322 16.232L119.338 16.2883L119.349 16.3509L119.355 16.4082L119.362 16.4707V16.523L119.363 16.5804L119.364 16.6275L119.359 16.7187L119.345 16.8099L119.331 16.8949L119.311 16.981L119.281 17.067L119.251 17.149L119.216 17.23L119.175 17.3109L119.13 17.3878L119.084 17.4636L119.033 17.5404L118.978 17.6122L118.921 17.6798L118.855 17.7464L118.794 17.813L118.727 17.8755L118.655 17.938L118.584 17.9954L118.506 18.0487L118.429 18.1009L118.327 18.1634L118.219 18.2259L118.111 18.2833L118.003 18.3315L117.89 18.3796L117.781 18.4175L117.667 18.4565L117.549 18.4862L117.435 18.5149L117.316 18.5344L117.202 18.5538L117.084 18.564L116.964 18.5682L116.845 18.5692H116.72L116.601 18.5599L116.482 18.5466L116.357 18.5271L116.238 18.4995L116.113 18.4708L115.972 18.4237L115.832 18.3571L115.685 18.2864L115.545 18.2147L115.399 18.1491L115.259 18.0968L115.113 18.0732L115.015 18.0681L114.947 18.0784L114.917 18.107L114.902 18.1593L114.908 18.2454L114.942 18.3981L115 18.565L115.076 18.7321L115.155 18.8889L115.229 19.0323L115.31 19.1891L115.394 19.3418L115.479 19.4944L115.575 19.6471L115.67 19.7998L115.77 19.9473L115.876 20.0907L115.987 20.2332L116.102 20.3664L116.223 20.4996L116.349 20.6236L116.486 20.7373L116.627 20.8469L116.773 20.9514L116.925 21.0416L117.086 21.1277L117.258 21.1984L117.43 21.2599L117.617 21.307L117.81 21.3449L117.929 21.3582L118.048 21.3777L118.173 21.391L118.292 21.4054L118.406 21.4146L118.525 21.4238H118.639L118.753 21.4228L118.862 21.4135L118.965 21.3982L119.069 21.3746L119.172 21.3459L119.265 21.307L119.357 21.2639L119.445 21.2066L119.526 21.139L119.599 21.058L119.67 20.9719L119.736 20.8664L119.792 20.7517L119.827 20.6318L119.814 20.5508L119.747 20.4893L119.621 20.4463L119.539 20.432L119.445 20.4278L119.341 20.4237L119.222 20.4289L119.103 20.434L118.973 20.4391L118.839 20.4442L118.699 20.4494H118.559L118.419 20.4452L118.274 20.4361L118.134 20.4227L117.994 20.394L117.864 20.3612L117.734 20.3141L117.609 20.2516L117.498 20.1758L117.394 20.0907L117.299 19.9811L117.215 19.8571L117.161 19.7188L117.17 19.6235L117.242 19.5416L117.355 19.4985L117.531 19.4647L117.701 19.435L117.872 19.4012L118.037 19.3674L118.202 19.3243L118.367 19.2762L118.532 19.2177L118.692 19.1501L118.795 19.0979L118.903 19.0302L119.016 18.9636L119.129 18.9012L119.242 18.8438L119.362 18.7997L119.48 18.7761H119.594L121.426 19.0087L121.52 19.0221L121.582 19.0415L121.624 19.0651L121.635 19.0989L121.625 19.1512L121.59 19.2229L121.534 19.3141L120.427 21.0508L120.382 21.141L120.377 21.2035L120.41 21.2742L120.42 21.2886L120.472 21.3562L120.556 21.3838L120.712 21.389L121.292 21.3869L121.385 21.3767L121.478 21.348L121.566 21.309L121.647 21.2568L121.72 21.1994L121.786 21.1318L121.847 21.06L121.892 20.9883L124.92 16.0527L125.039 15.9512L125.182 15.8846L125.255 15.8652L125.322 15.8508L125.389 15.8406L125.461 15.8262L125.529 15.8119L125.595 15.7976L125.658 15.778L125.72 15.7535L125.776 15.7248L125.828 15.691L125.874 15.6479L125.915 15.5957L125.95 15.5342L125.98 15.4614L126 15.3713L125.978 15.3139L125.91 15.2565L125.765 15.2043L125.593 15.1766L125.437 15.1725L109.108 15.3416H108.88L108.641 15.3375L108.403 15.3242L108.165 15.3016L107.931 15.2688L107.842 15.2453L107.796 15.2115L107.779 15.154L107.783 15.0588L107.832 14.8539L107.882 14.6571L107.888 14.4471L107.873 14.3805L107.856 14.318L107.83 14.2616L107.798 14.2042L107.761 14.1469L107.718 14.0997L107.676 14.0464L107.624 14.0044L107.571 13.9614L107.514 13.9184L107.456 13.8856L107.394 13.8518L107.326 13.819L107.264 13.7954L107.195 13.7718L107.123 13.7524L107.055 13.738L106.988 13.7288L106.915 13.7196L106.848 13.7206L99.5517 13.6755ZM63.9929 20.7967L63.9048 20.7977L63.8168 20.7834L63.7333 20.7639L63.6498 20.7363L63.5776 20.7025L63.5042 20.6594L63.4365 20.6072L63.3733 20.5457L63.3202 20.4791L63.2886 20.4033L63.2717 20.2834L63.2852 20.183L63.3202 20.102L63.3823 20.0303L63.4647 19.977L63.5573 19.934L63.6656 19.9094L63.7796 19.8951H63.8981L64.0178 19.9043L64.1374 19.9278L64.2458 19.9657L64.3508 20.0129L64.4399 20.0703L64.5132 20.1369L64.5606 20.2178L64.5923 20.3039L64.5945 20.3992L64.5652 20.5037L64.4986 20.6185L64.4579 20.6666L64.3959 20.7055L64.2412 20.7578L64.081 20.7916L63.9929 20.7967ZM110.673 17.7331L110.788 17.7566L110.857 17.8468L110.871 17.8714L110.904 17.9472L110.89 18.0189L110.834 18.1194L109.946 19.5118L109.9 19.5641L109.829 19.6215L109.73 19.6789L109.606 19.7372L109.473 19.7998L109.318 19.8572L109.148 19.9145L108.973 19.9678L108.791 20.016L108.606 20.0549L108.42 20.0887L108.234 20.1092L108.052 20.1235H107.882L107.72 20.1154L107.575 20.0866L107.445 20.0446L107.335 19.9873L107.246 19.9063L107.183 19.811L107.129 19.6297L107.116 19.4575L107.14 19.2864L107.2 19.1184L107.296 18.9606L107.418 18.8079L107.567 18.6593L107.736 18.52L107.92 18.3909L108.125 18.2659L108.342 18.1552L108.563 18.0548L108.79 17.9636L109.017 17.8816L109.244 17.814L109.466 17.7607L109.678 17.7218L109.875 17.6972L110.057 17.6869L110.217 17.6921L110.673 17.7331ZM80.3998 17.8161L80.4619 17.7966L80.5284 17.7771L80.6007 17.7525L80.6831 17.7331L80.7711 17.7187L80.8648 17.6993L80.9574 17.6849L81.0556 17.6705L81.1482 17.6562L81.2475 17.646L81.3456 17.6409L81.4382 17.6357L81.5319 17.6306L81.6143 17.6357L81.6978 17.6399L81.7701 17.649L81.8378 17.6634L81.8953 17.6818L81.9416 17.7013L82.041 17.7771L82.0737 17.8868L82.0545 18.021L82.0048 18.1542L81.9394 18.2833L81.8637 18.4124L81.787 18.5323L81.7113 18.6522L81.6459 18.7669L81.5748 18.8817L81.5037 18.9964L81.4326 19.1061L81.3502 19.2168L81.2689 19.3264L81.1775 19.4268L81.0804 19.5231L80.9777 19.6092L80.9111 19.6522L80.8389 19.6953L80.7621 19.7383L80.6797 19.7721L80.5917 19.811L80.4991 19.8397L80.4009 19.8684L80.3027 19.893L80.2045 19.9125L80.1007 19.9319L79.998 19.9463L79.8941 19.9565L79.7959 19.9658H79.6921L79.5939 19.9668L79.5002 19.9617L79.4065 19.9524L79.3185 19.9391L79.235 19.9196L79.1582 19.8961L79.0375 19.8438L78.9483 19.7874L78.876 19.7208L78.8331 19.644L78.8004 19.5631L78.7948 19.477L78.8038 19.3868L78.823 19.2956L78.858 19.2003L78.9031 19.104L78.9596 19.0087L79.0205 18.9134L79.086 18.8171L79.1582 18.7311L79.2293 18.645L79.3004 18.564L79.3715 18.4872L79.4381 18.4206L79.5002 18.3581L79.551 18.3099L79.6899 18.1952L79.849 18.0896L80.0183 17.9985L80.1887 17.9114L80.3535 17.8345L80.3998 17.8161ZM123.208 15.8908L123.302 15.9092L123.385 15.9707L123.428 16.0517L123.435 16.1572L123.42 16.2094L123.396 16.2771L123.359 16.358L123.314 16.4482L123.259 16.5537L123.198 16.6633L123.133 16.7832L123.062 16.9031L122.985 17.023L122.909 17.1419L122.834 17.2617L122.757 17.3714L122.68 17.4769L122.609 17.5722L122.548 17.6542L122.487 17.7208L122.441 17.7741L122.4 17.8078L122.334 17.8458L122.251 17.8796L122.153 17.9083L122.039 17.937L121.92 17.9616L121.796 17.9861L121.672 18.0056L121.552 18.0149L121.434 18.0251H121.33L121.238 18.0261L121.164 18.0118L120.536 17.8796L120.473 17.8612L120.442 17.8181L120.435 17.7464L120.449 17.6173L120.654 16.2463L120.673 16.1418L120.692 16.0598L120.713 15.9984L120.743 15.9553L120.779 15.9266L120.826 15.9072L120.892 15.8969H120.97L123.208 15.8908ZM98.9874 15.2904L98.9151 15.2719L98.8519 15.2002L98.8406 15.1244L98.8858 15.0147L98.9366 14.942L98.993 14.8754L99.0596 14.8139L99.1307 14.7647L99.2142 14.7217L99.2955 14.6838L99.3835 14.65L99.4772 14.6254L99.5743 14.6059L99.6736 14.5875L99.7718 14.5772L99.8745 14.567L99.9738 14.5618H100.077L100.175 14.5567L100.279 14.5608H100.465L100.558 14.5649H100.642L106.03 14.6008L106.104 14.61L106.172 14.6387L106.229 14.6817L106.281 14.7391L106.313 14.8006L106.335 14.8672L106.347 14.9338L106.332 15.0014L106.291 15.0823L106.23 15.1541L106.148 15.2166L106.055 15.2555L105.957 15.2698L98.9874 15.2904ZM95.5064 14.8631L95.6001 14.858L95.6927 14.8477L95.7807 14.8365L95.8687 14.8169L95.9568 14.7924L96.0448 14.7637L96.1272 14.7299L96.2096 14.6909L96.292 14.652L96.3631 14.6049L96.4353 14.5567L96.5076 14.4993L96.573 14.443L96.6351 14.3856L96.6915 14.319L96.7469 14.2524L96.7932 14.1807L96.8383 14.1059L96.8789 14.0301L96.9094 13.9542L96.9387 13.8364L96.9218 13.7513L96.8541 13.6868L96.7344 13.6407L96.6249 13.6181L96.5256 13.6058L96.4376 13.5977L96.3552 13.6028L96.2773 13.613L96.2051 13.6325L96.1385 13.6571L96.0707 13.6858L96.0098 13.7196L95.9534 13.7575L95.8969 13.7964L95.8405 13.8385L95.7841 13.8815L95.7276 13.9296L95.6712 13.9768L95.6091 14.0198L95.5482 14.0639L95.4805 14.1069L95.4094 14.1448L95.3315 14.1838L95.1825 14.2268L95.0324 14.2473L94.871 14.2493L94.7163 14.2422L94.5605 14.2299L94.4048 14.2268L94.3213 14.2176L94.2693 14.1858L94.2276 14.1151L94.1836 13.9891L94.1508 13.8671L94.1034 13.7595L93.9984 13.6858L93.9048 13.653L93.8009 13.6315L93.6915 13.6181L93.5831 13.6151L93.4736 13.6202L93.3653 13.6356L93.2625 13.6602L93.17 13.6991L93.0357 13.7903L92.9442 13.9133L92.8946 14.0126L92.8483 14.112L92.8133 14.2114L92.7896 14.3108L92.7851 14.4143L92.8077 14.527L92.8449 14.6203L92.9082 14.695L92.9973 14.7504L93.1587 14.8139L93.3461 14.8641L93.5165 14.8856L95.5064 14.8631Z" fill="black"/>
<path d="M4.08246 22.9853L3.89059 22.9873L3.70885 22.9853L3.5486 22.9863L3.40298 22.9884L3.26865 22.9894L3.15465 22.9956L3.04632 23.0017L2.95261 23.0078L2.87024 23.013L2.79798 23.0181L2.7359 23.0283L2.67837 23.0386L2.62753 23.0529L2.58578 23.0683L2.54969 23.0867L2.51919 23.1011L2.49323 23.1257L2.46843 23.1492L2.4481 23.1728L2.42664 23.2015L2.02596 23.7702L2 23.846L2.02257 23.9208L2.08015 23.9771L2.16252 23.9946L30.3791 24.0017L30.4829 23.9956L30.5552 23.9618L30.6217 23.8952L30.7019 23.7763L34.0959 18.3293L34.1263 18.2494L34.1196 18.1838L34.0778 18.1316L34.0202 18.0947L33.9424 18.0681L33.8589 18.0496L33.781 18.0455L25.6554 18.0414L25.5211 18.0434L25.4229 18.0588L25.3608 18.0875L25.31 18.1347L25.2592 18.2156L24.5211 19.5784L24.354 19.8632L24.161 20.1419L23.9522 20.4124L23.722 20.6788L23.4714 20.9268L23.205 21.1696L22.9284 21.3981L22.6361 21.6174L22.328 21.8182L22.0142 22.0098L21.6857 22.1881L21.3505 22.3469L21.0051 22.4914L20.6597 22.6184L20.3042 22.7301L19.9475 22.8234L19.5863 22.893L19.2285 22.9494L18.8662 22.9811L18.5096 22.9904L4.08246 22.9853ZM41.4371 23.1727L41.0602 23.1676L40.6787 23.1532L40.2971 23.1338L39.9145 23.1235L39.5386 23.1184L39.1571 23.1235L38.77 23.1276L38.3828 23.1317L38.0013 23.1358H37.6142L37.2282 23.1399L36.841 23.1389H36.4595L36.0724 23.1338L35.6852 23.1286L35.3037 23.1235L34.9166 23.1143L34.8297 23.1102L34.7315 23.1061L34.6231 23.0979L34.5091 23.0948L34.385 23.0866L34.2619 23.0835L34.1321 23.0805L34.0035 23.0764L33.8748 23.0784L33.7461 23.0795L33.6174 23.0856L33.4933 23.0969L33.3691 23.1081L33.2563 23.1276L33.1479 23.1522L33.0452 23.1819L32.9583 23.2209L32.877 23.2639L32.8104 23.3161L32.754 23.3776L32.719 23.435L32.6942 23.4965L32.6896 23.5569L32.6953 23.6092L32.7167 23.6604L32.7539 23.7024L32.8002 23.7301L32.868 23.7526L32.9447 23.7619L120.997 23.7209L121.11 23.7055L121.208 23.6573L121.295 23.5949L121.371 23.519L121.416 23.4534V23.3868L121.369 23.2936L121.31 23.1953L121.252 23.1399L121.18 23.1174L121.072 23.1133L120.345 23.1215L119.617 23.1246L118.89 23.1286L118.163 23.1266L117.435 23.1256L116.708 23.1246L115.981 23.1235L115.255 23.1174L114.527 23.1112L113.8 23.1051L113.072 23.0989L112.345 23.0928L111.617 23.0866L110.89 23.0805L110.167 23.0744L109.441 23.0692L108.718 23.0671L107.991 23.061L107.269 23.06L106.547 23.0631L41.4371 23.1727ZM9.41378 12.5208L9.3517 12.5218L9.28966 12.5311L9.22758 12.5465L9.16095 12.57L9.09891 12.5946L9.03682 12.6233L8.97023 12.6571L8.91377 12.696L8.85169 12.7391L8.79527 12.7862L8.74447 12.8344L8.69367 12.8866L8.65304 12.9389L8.61129 12.9901L8.57628 13.0475L8.54582 13.1039L8.52549 13.1653L8.50631 13.2227L8.5018 13.2831L8.49726 13.3395L8.51875 13.4338L8.59774 13.4563L8.7219 13.4829L8.84718 13.5004L23.2732 13.5383L23.4244 13.5414L23.5689 13.5537L23.7202 13.5762L23.8759 13.607L24.026 13.6479L24.1728 13.693L24.3229 13.7473L24.4696 13.8067L24.6096 13.8764L24.7462 13.9553L24.8771 14.0383L25.0024 14.1254L25.1231 14.2186L25.2383 14.3211L25.3376 14.4276L25.4324 14.5353L25.5171 14.6562L25.5916 14.7781L25.6548 14.9041L25.7033 15.0312L25.9742 15.8652L26.0013 15.9452L26.043 15.9913L26.1051 16.0097L26.209 16.0179L35.2465 16.0537L35.3458 16.0527L35.4226 16.0425L35.4847 16.0179L35.5354 15.9759L35.5874 15.9134L35.6483 15.8243L39.057 10.3804L39.092 10.2912L39.0807 10.2113L39.0232 10.1652L38.8979 10.1242L38.6902 10.0883L38.4836 10.0771L30.4405 10.0863L30.3479 10.0914L30.2802 10.1252L30.1933 10.197L29.0522 11.3005L28.8456 11.4542L28.6165 11.5925L28.5036 11.6735L28.3851 11.7503L28.2621 11.8179L28.1334 11.8855L27.9991 11.947L27.8647 12.0054L27.7259 12.0639L27.5871 12.1212L27.4426 12.1704L27.2925 12.2237L27.148 12.2677L26.999 12.3118L26.8489 12.3507L26.6943 12.3856L26.5442 12.4204L26.3884 12.4501L26.2394 12.4757L26.0893 12.4952L25.9392 12.5116L25.7891 12.5229L25.6435 12.529L25.499 12.5301L9.41378 12.5208ZM16.4027 2L16.3045 2.00101L16.1533 2.00717L15.9727 2.01433L15.7808 2.03073L15.6104 2.05535L15.476 2.09017L15.4095 2.1332L15.0133 2.73056L14.9422 2.85352L14.9275 2.93344L14.9602 3.00822L15.002 3.06458L15.0652 3.09227L15.1691 3.10559L15.3395 3.10762L27.6932 3.12608L27.7869 3.12503L27.8862 3.12916L27.9788 3.13223L28.077 3.13632L28.1763 3.1394L28.2745 3.14758L28.3682 3.1558L28.472 3.16912L28.5702 3.1773L28.6684 3.19062L28.7621 3.20803L28.8614 3.22649L28.9596 3.2439L29.0533 3.26641L29.1515 3.289L29.2463 3.31152L29.3389 3.33816L29.428 3.36994L29.5161 3.40273L29.6052 3.43448L29.8028 3.52157L29.9913 3.62712L30.1741 3.74801L30.3513 3.87709L30.515 4.02159L30.6719 4.17528L30.814 4.3382L30.9506 4.51546L31.0726 4.69785L31.1843 4.88434L31.2847 5.07593L31.3705 5.2778L31.4405 5.47862L31.5003 5.68559L31.5455 5.89159L31.5737 6.09852L31.5872 6.30958L31.5794 6.51247L31.5613 6.71535L31.5229 6.91722L31.287 7.90293L31.2723 7.98796L31.2938 8.03917L31.3615 8.06274L31.4913 8.06581L40.1982 8.13857L40.302 8.13756L40.3787 8.12217L40.4408 8.08837L40.4972 8.03096L40.5582 7.94184L44.029 2.48873L44.0696 2.41702L44.0899 2.34224L44.0888 2.27151L44.0662 2.20596L44.0143 2.15981L43.9308 2.13219L43.547 2.10758L43.1531 2.09835L42.7693 2.09324L16.4027 2Z" fill="#00AEEF"/>
</svg>
